M48
; DRILL file {KiCad 9.0.5} date 2026-02-12T22:27:41+0100
; FORMAT={-:-/ absolute / metric / decimal}
; #@! TF.CreationDate,2026-02-12T22:27:41+01:00
; #@! TF.GenerationSoftware,Kicad,Pcbnew,9.0.5
; #@! TF.FileFunction,Plated,1,2,PTH
FMAT,2
METRIC
; #@! TA.AperFunction,Plated,PTH,ComponentDrill
T1C0.600
; #@! TA.AperFunction,Plated,PTH,ComponentDrill
T2C0.800
; #@! TA.AperFunction,Plated,PTH,ComponentDrill
T3C0.920
; #@! TA.AperFunction,Plated,PTH,ComponentDrill
T4C1.000
; #@! TA.AperFunction,Plated,PTH,ComponentDrill
T5C1.100
; #@! TA.AperFunction,Plated,PTH,ComponentDrill
T6C1.500
; #@! TA.AperFunction,Plated,PTH,ComponentDrill
T7C2.200
; #@! TA.AperFunction,Plated,PTH,ComponentDrill
T8C2.300
; #@! TA.AperFunction,Plated,PTH,ComponentDrill
T9C3.200
%
G90
G05
T2
X3.13Y-45.85
X3.13Y-48.39
X15.37Y-41.938
X15.37Y-43.938
X15.37Y-45.938
X17.37Y-41.938
X17.37Y-43.938
X17.37Y-45.938
X23.5Y-61.92
X23.5Y-72.08
X27.0Y-59.5
X27.19Y-62.925
X27.19Y-73.085
X29.42Y-76.5
X29.73Y-62.925
X29.73Y-73.085
X30.0Y-19.92
X30.0Y-30.08
X32.27Y-62.925
X32.27Y-73.085
X33.69Y-17.5
X33.69Y-20.925
X33.69Y-31.085
X34.62Y-59.5
X34.81Y-62.925
X34.81Y-73.085
X35.84Y-35.0
X36.23Y-20.925
X36.23Y-31.085
X38.77Y-20.925
X38.77Y-31.085
X39.5Y-67.0
X39.5Y-69.5
X39.58Y-76.5
X41.31Y-17.5
X41.31Y-20.925
X41.31Y-31.085
X45.5Y-25.0
X45.5Y-27.5
X46.0Y-35.0
X54.791Y-20.92
X54.791Y-31.08
X58.312Y-20.92
X58.312Y-31.08
X61.833Y-20.92
X61.833Y-31.08
X65.353Y-20.92
X65.353Y-31.08
X68.874Y-20.92
X68.874Y-31.08
X72.395Y-20.92
X72.395Y-31.08
X75.916Y-20.92
X75.916Y-31.08
X79.437Y-20.92
X79.437Y-31.08
X82.958Y-20.92
X82.958Y-31.08
X86.479Y-20.92
X86.479Y-31.08
X90.0Y-20.92
X90.0Y-31.08
X93.521Y-20.92
X93.521Y-31.08
T3
X13.48Y-60.996
X13.48Y-63.496
X13.48Y-65.496
X13.48Y-67.996
T4
X15.522Y-11.386
X18.062Y-11.386
X20.602Y-11.386
X23.142Y-11.386
X53.25Y-63.75
X53.25Y-68.25
X59.75Y-63.75
X59.75Y-68.25
X72.0Y-52.0
X72.0Y-54.5
X72.0Y-57.0
X86.5Y-52.0
X86.5Y-57.0
T5
X2.4Y-39.5
X2.4Y-54.74
X4.94Y-39.5
X4.94Y-42.04
X4.94Y-54.74
X7.48Y-39.5
X7.48Y-54.74
X8.699Y-51.689
X10.02Y-39.5
X10.02Y-54.74
X11.239Y-51.689
X12.56Y-39.5
X12.56Y-54.74
X13.779Y-51.689
X15.1Y-39.5
X15.1Y-54.74
X16.319Y-51.689
X17.64Y-39.5
X17.64Y-54.74
X18.859Y-51.689
X20.18Y-39.5
X20.18Y-54.74
X22.72Y-39.5
X22.72Y-54.74
X25.26Y-39.5
X25.26Y-54.74
X27.8Y-39.5
X27.8Y-54.74
X30.34Y-39.5
X30.34Y-54.74
X32.88Y-39.5
X32.88Y-54.74
X35.42Y-39.5
X35.42Y-54.74
X37.96Y-39.5
X37.96Y-54.74
X40.5Y-39.5
X40.5Y-54.74
X43.04Y-39.5
X43.04Y-54.74
X45.58Y-39.5
X45.58Y-54.74
X48.12Y-39.5
X48.12Y-42.04
X48.12Y-44.58
X48.12Y-47.12
X48.12Y-49.66
X48.12Y-52.2
X48.12Y-54.74
X50.66Y-39.5
X50.66Y-54.74
X53.2Y-39.5
X53.2Y-54.74
X55.74Y-39.5
X55.74Y-54.74
X58.28Y-39.5
X58.28Y-54.74
X60.82Y-39.5
X60.82Y-54.74
T7
X8.985Y-11.97
X9.142Y-34.986
X29.642Y-11.986
X29.642Y-34.986
T8
X10.77Y-57.926
X10.77Y-71.066
T9
X5.0Y-5.0
X5.0Y-75.0
X94.0Y-5.0
X94.0Y-75.0
T1
G00X4.95Y-16.032
M15
G01X5.55Y-16.032
M16
G05
G00X4.95Y-21.532
M15
G01X5.55Y-21.532
M16
G05
G00X4.95Y-24.532
M15
G01X5.55Y-24.532
M16
G05
G00X4.95Y-30.032
M15
G01X5.55Y-30.032
M16
G05
G00X7.95Y-21.532
M15
G01X8.55Y-21.532
M16
G05
G00X7.95Y-30.032
M15
G01X8.55Y-30.032
M16
G05
G00X11.95Y-21.532
M15
G01X12.55Y-21.532
M16
G05
G00X11.95Y-30.032
M15
G01X12.55Y-30.032
M16
G05
G00X13.45Y-17.032
M15
G01X14.05Y-17.032
M16
G05
G00X13.45Y-25.532
M15
G01X14.05Y-25.532
M16
G05
G00X35.115Y-5.4
M15
G01X35.115Y-6.0
M16
G05
G00X35.115Y-8.4
M15
G01X35.115Y-9.0
M16
G05
G00X35.115Y-12.4
M15
G01X35.115Y-13.0
M16
G05
G00X39.615Y-13.9
M15
G01X39.615Y-14.5
M16
G05
G00X40.615Y-5.4
M15
G01X40.615Y-6.0
M16
G05
G00X44.7Y-5.4
M15
G01X44.7Y-6.0
M16
G05
G00X44.7Y-8.4
M15
G01X44.7Y-9.0
M16
G05
G00X44.7Y-12.4
M15
G01X44.7Y-13.0
M16
G05
G00X49.2Y-13.9
M15
G01X49.2Y-14.5
M16
G05
G00X50.2Y-5.4
M15
G01X50.2Y-6.0
M16
G05
G00X54.285Y-5.4
M15
G01X54.285Y-6.0
M16
G05
G00X54.285Y-8.4
M15
G01X54.285Y-9.0
M16
G05
G00X54.285Y-12.4
M15
G01X54.285Y-13.0
M16
G05
G00X58.785Y-13.9
M15
G01X58.785Y-14.5
M16
G05
G00X59.785Y-5.4
M15
G01X59.785Y-6.0
M16
G05
G00X63.87Y-5.4
M15
G01X63.87Y-6.0
M16
G05
G00X63.87Y-8.4
M15
G01X63.87Y-9.0
M16
G05
G00X63.87Y-12.4
M15
G01X63.87Y-13.0
M16
G05
G00X68.37Y-13.9
M15
G01X68.37Y-14.5
M16
G05
G00X69.37Y-5.4
M15
G01X69.37Y-6.0
M16
G05
G00X73.455Y-5.4
M15
G01X73.455Y-6.0
M16
G05
G00X73.455Y-8.4
M15
G01X73.455Y-9.0
M16
G05
G00X73.455Y-12.4
M15
G01X73.455Y-13.0
M16
G05
G00X77.955Y-13.9
M15
G01X77.955Y-14.5
M16
G05
G00X78.955Y-5.4
M15
G01X78.955Y-6.0
M16
G05
G00X83.04Y-5.4
M15
G01X83.04Y-6.0
M16
G05
G00X83.04Y-8.4
M15
G01X83.04Y-9.0
M16
G05
G00X83.04Y-12.4
M15
G01X83.04Y-13.0
M16
G05
G00X87.54Y-13.9
M15
G01X87.54Y-14.5
M16
G05
G00X88.54Y-5.4
M15
G01X88.54Y-6.0
M16
G05
T6
G00X78.85Y-48.9
M15
G01X80.15Y-48.9
M16
G05
G00X78.85Y-60.1
M15
G01X80.15Y-60.1
M16
G05
M30
