%TF.GenerationSoftware,KiCad,Pcbnew,9.0.5*%
%TF.CreationDate,2026-02-12T22:27:37+01:00*%
%TF.ProjectId,MIDISHIELD_v0.2,4d494449-5348-4494-954c-445f76302e32,rev?*%
%TF.SameCoordinates,Original*%
%TF.FileFunction,Legend,Top*%
%TF.FilePolarity,Positive*%
%FSLAX46Y46*%
G04 Gerber Fmt 4.6, Leading zero omitted, Abs format (unit mm)*
G04 Created by KiCad (PCBNEW 9.0.5) date 2026-02-12 22:27:37*
%MOMM*%
%LPD*%
G01*
G04 APERTURE LIST*
%ADD10C,0.150000*%
%ADD11C,0.120000*%
%ADD12C,0.100000*%
G04 APERTURE END LIST*
D10*
X37954819Y-26766904D02*
X38764342Y-26766904D01*
X38764342Y-26766904D02*
X38859580Y-26719285D01*
X38859580Y-26719285D02*
X38907200Y-26671666D01*
X38907200Y-26671666D02*
X38954819Y-26576428D01*
X38954819Y-26576428D02*
X38954819Y-26385952D01*
X38954819Y-26385952D02*
X38907200Y-26290714D01*
X38907200Y-26290714D02*
X38859580Y-26243095D01*
X38859580Y-26243095D02*
X38764342Y-26195476D01*
X38764342Y-26195476D02*
X37954819Y-26195476D01*
X37954819Y-25814523D02*
X37954819Y-25195476D01*
X37954819Y-25195476D02*
X38335771Y-25528809D01*
X38335771Y-25528809D02*
X38335771Y-25385952D01*
X38335771Y-25385952D02*
X38383390Y-25290714D01*
X38383390Y-25290714D02*
X38431009Y-25243095D01*
X38431009Y-25243095D02*
X38526247Y-25195476D01*
X38526247Y-25195476D02*
X38764342Y-25195476D01*
X38764342Y-25195476D02*
X38859580Y-25243095D01*
X38859580Y-25243095D02*
X38907200Y-25290714D01*
X38907200Y-25290714D02*
X38954819Y-25385952D01*
X38954819Y-25385952D02*
X38954819Y-25671666D01*
X38954819Y-25671666D02*
X38907200Y-25766904D01*
X38907200Y-25766904D02*
X38859580Y-25814523D01*
X23713342Y-15940389D02*
X23903818Y-15940389D01*
X23903818Y-15940389D02*
X23999056Y-15988008D01*
X23999056Y-15988008D02*
X24094294Y-16083246D01*
X24094294Y-16083246D02*
X24141913Y-16273722D01*
X24141913Y-16273722D02*
X24141913Y-16607055D01*
X24141913Y-16607055D02*
X24094294Y-16797531D01*
X24094294Y-16797531D02*
X23999056Y-16892770D01*
X23999056Y-16892770D02*
X23903818Y-16940389D01*
X23903818Y-16940389D02*
X23713342Y-16940389D01*
X23713342Y-16940389D02*
X23618104Y-16892770D01*
X23618104Y-16892770D02*
X23522866Y-16797531D01*
X23522866Y-16797531D02*
X23475247Y-16607055D01*
X23475247Y-16607055D02*
X23475247Y-16273722D01*
X23475247Y-16273722D02*
X23522866Y-16083246D01*
X23522866Y-16083246D02*
X23618104Y-15988008D01*
X23618104Y-15988008D02*
X23713342Y-15940389D01*
X25046675Y-16940389D02*
X24570485Y-16940389D01*
X24570485Y-16940389D02*
X24570485Y-15940389D01*
X25380009Y-16416579D02*
X25713342Y-16416579D01*
X25856199Y-16940389D02*
X25380009Y-16940389D01*
X25380009Y-16940389D02*
X25380009Y-15940389D01*
X25380009Y-15940389D02*
X25856199Y-15940389D01*
X26284771Y-16940389D02*
X26284771Y-15940389D01*
X26284771Y-15940389D02*
X26522866Y-15940389D01*
X26522866Y-15940389D02*
X26665723Y-15988008D01*
X26665723Y-15988008D02*
X26760961Y-16083246D01*
X26760961Y-16083246D02*
X26808580Y-16178484D01*
X26808580Y-16178484D02*
X26856199Y-16368960D01*
X26856199Y-16368960D02*
X26856199Y-16511817D01*
X26856199Y-16511817D02*
X26808580Y-16702293D01*
X26808580Y-16702293D02*
X26760961Y-16797531D01*
X26760961Y-16797531D02*
X26665723Y-16892770D01*
X26665723Y-16892770D02*
X26522866Y-16940389D01*
X26522866Y-16940389D02*
X26284771Y-16940389D01*
X27808580Y-16940389D02*
X27237152Y-16940389D01*
X27522866Y-16940389D02*
X27522866Y-15940389D01*
X27522866Y-15940389D02*
X27427628Y-16083246D01*
X27427628Y-16083246D02*
X27332390Y-16178484D01*
X27332390Y-16178484D02*
X27237152Y-16226103D01*
X62287337Y-26166666D02*
X61811146Y-26499999D01*
X62287337Y-26738094D02*
X61287337Y-26738094D01*
X61287337Y-26738094D02*
X61287337Y-26357142D01*
X61287337Y-26357142D02*
X61334956Y-26261904D01*
X61334956Y-26261904D02*
X61382575Y-26214285D01*
X61382575Y-26214285D02*
X61477813Y-26166666D01*
X61477813Y-26166666D02*
X61620670Y-26166666D01*
X61620670Y-26166666D02*
X61715908Y-26214285D01*
X61715908Y-26214285D02*
X61763527Y-26261904D01*
X61763527Y-26261904D02*
X61811146Y-26357142D01*
X61811146Y-26357142D02*
X61811146Y-26738094D01*
X61287337Y-25833332D02*
X61287337Y-25166666D01*
X61287337Y-25166666D02*
X62287337Y-25595237D01*
X93975754Y-26642857D02*
X93499563Y-26976190D01*
X93975754Y-27214285D02*
X92975754Y-27214285D01*
X92975754Y-27214285D02*
X92975754Y-26833333D01*
X92975754Y-26833333D02*
X93023373Y-26738095D01*
X93023373Y-26738095D02*
X93070992Y-26690476D01*
X93070992Y-26690476D02*
X93166230Y-26642857D01*
X93166230Y-26642857D02*
X93309087Y-26642857D01*
X93309087Y-26642857D02*
X93404325Y-26690476D01*
X93404325Y-26690476D02*
X93451944Y-26738095D01*
X93451944Y-26738095D02*
X93499563Y-26833333D01*
X93499563Y-26833333D02*
X93499563Y-27214285D01*
X93975754Y-25690476D02*
X93975754Y-26261904D01*
X93975754Y-25976190D02*
X92975754Y-25976190D01*
X92975754Y-25976190D02*
X93118611Y-26071428D01*
X93118611Y-26071428D02*
X93213849Y-26166666D01*
X93213849Y-26166666D02*
X93261468Y-26261904D01*
X93309087Y-24833333D02*
X93975754Y-24833333D01*
X92928135Y-25071428D02*
X93642420Y-25309523D01*
X93642420Y-25309523D02*
X93642420Y-24690476D01*
X53229762Y815180D02*
X53229762Y1815180D01*
X53229762Y1815180D02*
X53563095Y1100895D01*
X53563095Y1100895D02*
X53896428Y1815180D01*
X53896428Y1815180D02*
X53896428Y815180D01*
X54372619Y815180D02*
X54372619Y1815180D01*
X54848809Y815180D02*
X54848809Y1815180D01*
X54848809Y1815180D02*
X55086904Y1815180D01*
X55086904Y1815180D02*
X55229761Y1767561D01*
X55229761Y1767561D02*
X55324999Y1672323D01*
X55324999Y1672323D02*
X55372618Y1577085D01*
X55372618Y1577085D02*
X55420237Y1386609D01*
X55420237Y1386609D02*
X55420237Y1243752D01*
X55420237Y1243752D02*
X55372618Y1053276D01*
X55372618Y1053276D02*
X55324999Y958038D01*
X55324999Y958038D02*
X55229761Y862800D01*
X55229761Y862800D02*
X55086904Y815180D01*
X55086904Y815180D02*
X54848809Y815180D01*
X55848809Y815180D02*
X55848809Y1815180D01*
X56086904Y719942D02*
X56848808Y719942D01*
X57277380Y1815180D02*
X57467856Y1815180D01*
X57467856Y1815180D02*
X57563094Y1767561D01*
X57563094Y1767561D02*
X57658332Y1672323D01*
X57658332Y1672323D02*
X57705951Y1481847D01*
X57705951Y1481847D02*
X57705951Y1148514D01*
X57705951Y1148514D02*
X57658332Y958038D01*
X57658332Y958038D02*
X57563094Y862800D01*
X57563094Y862800D02*
X57467856Y815180D01*
X57467856Y815180D02*
X57277380Y815180D01*
X57277380Y815180D02*
X57182142Y862800D01*
X57182142Y862800D02*
X57086904Y958038D01*
X57086904Y958038D02*
X57039285Y1148514D01*
X57039285Y1148514D02*
X57039285Y1481847D01*
X57039285Y1481847D02*
X57086904Y1672323D01*
X57086904Y1672323D02*
X57182142Y1767561D01*
X57182142Y1767561D02*
X57277380Y1815180D01*
X58134523Y1815180D02*
X58134523Y1005657D01*
X58134523Y1005657D02*
X58182142Y910419D01*
X58182142Y910419D02*
X58229761Y862800D01*
X58229761Y862800D02*
X58324999Y815180D01*
X58324999Y815180D02*
X58515475Y815180D01*
X58515475Y815180D02*
X58610713Y862800D01*
X58610713Y862800D02*
X58658332Y910419D01*
X58658332Y910419D02*
X58705951Y1005657D01*
X58705951Y1005657D02*
X58705951Y1815180D01*
X59039285Y1815180D02*
X59610713Y1815180D01*
X59324999Y815180D02*
X59324999Y1815180D01*
X59848809Y1815180D02*
X60467856Y1815180D01*
X60467856Y1815180D02*
X60134523Y1434228D01*
X60134523Y1434228D02*
X60277380Y1434228D01*
X60277380Y1434228D02*
X60372618Y1386609D01*
X60372618Y1386609D02*
X60420237Y1338990D01*
X60420237Y1338990D02*
X60467856Y1243752D01*
X60467856Y1243752D02*
X60467856Y1005657D01*
X60467856Y1005657D02*
X60420237Y910419D01*
X60420237Y910419D02*
X60372618Y862800D01*
X60372618Y862800D02*
X60277380Y815180D01*
X60277380Y815180D02*
X59991666Y815180D01*
X59991666Y815180D02*
X59896428Y862800D01*
X59896428Y862800D02*
X59848809Y910419D01*
X69329207Y-26642857D02*
X68853016Y-26976190D01*
X69329207Y-27214285D02*
X68329207Y-27214285D01*
X68329207Y-27214285D02*
X68329207Y-26833333D01*
X68329207Y-26833333D02*
X68376826Y-26738095D01*
X68376826Y-26738095D02*
X68424445Y-26690476D01*
X68424445Y-26690476D02*
X68519683Y-26642857D01*
X68519683Y-26642857D02*
X68662540Y-26642857D01*
X68662540Y-26642857D02*
X68757778Y-26690476D01*
X68757778Y-26690476D02*
X68805397Y-26738095D01*
X68805397Y-26738095D02*
X68853016Y-26833333D01*
X68853016Y-26833333D02*
X68853016Y-27214285D01*
X69329207Y-25690476D02*
X69329207Y-26261904D01*
X69329207Y-25976190D02*
X68329207Y-25976190D01*
X68329207Y-25976190D02*
X68472064Y-26071428D01*
X68472064Y-26071428D02*
X68567302Y-26166666D01*
X68567302Y-26166666D02*
X68614921Y-26261904D01*
X69329207Y-24738095D02*
X69329207Y-25309523D01*
X69329207Y-25023809D02*
X68329207Y-25023809D01*
X68329207Y-25023809D02*
X68472064Y-25119047D01*
X68472064Y-25119047D02*
X68567302Y-25214285D01*
X68567302Y-25214285D02*
X68614921Y-25309523D01*
X81984762Y815180D02*
X81984762Y1815180D01*
X81984762Y1815180D02*
X82318095Y1100895D01*
X82318095Y1100895D02*
X82651428Y1815180D01*
X82651428Y1815180D02*
X82651428Y815180D01*
X83127619Y815180D02*
X83127619Y1815180D01*
X83603809Y815180D02*
X83603809Y1815180D01*
X83603809Y1815180D02*
X83841904Y1815180D01*
X83841904Y1815180D02*
X83984761Y1767561D01*
X83984761Y1767561D02*
X84079999Y1672323D01*
X84079999Y1672323D02*
X84127618Y1577085D01*
X84127618Y1577085D02*
X84175237Y1386609D01*
X84175237Y1386609D02*
X84175237Y1243752D01*
X84175237Y1243752D02*
X84127618Y1053276D01*
X84127618Y1053276D02*
X84079999Y958038D01*
X84079999Y958038D02*
X83984761Y862800D01*
X83984761Y862800D02*
X83841904Y815180D01*
X83841904Y815180D02*
X83603809Y815180D01*
X84603809Y815180D02*
X84603809Y1815180D01*
X84841904Y719942D02*
X85603808Y719942D01*
X86032380Y1815180D02*
X86222856Y1815180D01*
X86222856Y1815180D02*
X86318094Y1767561D01*
X86318094Y1767561D02*
X86413332Y1672323D01*
X86413332Y1672323D02*
X86460951Y1481847D01*
X86460951Y1481847D02*
X86460951Y1148514D01*
X86460951Y1148514D02*
X86413332Y958038D01*
X86413332Y958038D02*
X86318094Y862800D01*
X86318094Y862800D02*
X86222856Y815180D01*
X86222856Y815180D02*
X86032380Y815180D01*
X86032380Y815180D02*
X85937142Y862800D01*
X85937142Y862800D02*
X85841904Y958038D01*
X85841904Y958038D02*
X85794285Y1148514D01*
X85794285Y1148514D02*
X85794285Y1481847D01*
X85794285Y1481847D02*
X85841904Y1672323D01*
X85841904Y1672323D02*
X85937142Y1767561D01*
X85937142Y1767561D02*
X86032380Y1815180D01*
X86889523Y1815180D02*
X86889523Y1005657D01*
X86889523Y1005657D02*
X86937142Y910419D01*
X86937142Y910419D02*
X86984761Y862800D01*
X86984761Y862800D02*
X87079999Y815180D01*
X87079999Y815180D02*
X87270475Y815180D01*
X87270475Y815180D02*
X87365713Y862800D01*
X87365713Y862800D02*
X87413332Y910419D01*
X87413332Y910419D02*
X87460951Y1005657D01*
X87460951Y1005657D02*
X87460951Y1815180D01*
X87794285Y1815180D02*
X88365713Y1815180D01*
X88079999Y815180D02*
X88079999Y1815180D01*
X89127618Y1815180D02*
X88937142Y1815180D01*
X88937142Y1815180D02*
X88841904Y1767561D01*
X88841904Y1767561D02*
X88794285Y1719942D01*
X88794285Y1719942D02*
X88699047Y1577085D01*
X88699047Y1577085D02*
X88651428Y1386609D01*
X88651428Y1386609D02*
X88651428Y1005657D01*
X88651428Y1005657D02*
X88699047Y910419D01*
X88699047Y910419D02*
X88746666Y862800D01*
X88746666Y862800D02*
X88841904Y815180D01*
X88841904Y815180D02*
X89032380Y815180D01*
X89032380Y815180D02*
X89127618Y862800D01*
X89127618Y862800D02*
X89175237Y910419D01*
X89175237Y910419D02*
X89222856Y1005657D01*
X89222856Y1005657D02*
X89222856Y1243752D01*
X89222856Y1243752D02*
X89175237Y1338990D01*
X89175237Y1338990D02*
X89127618Y1386609D01*
X89127618Y1386609D02*
X89032380Y1434228D01*
X89032380Y1434228D02*
X88841904Y1434228D01*
X88841904Y1434228D02*
X88746666Y1386609D01*
X88746666Y1386609D02*
X88699047Y1338990D01*
X88699047Y1338990D02*
X88651428Y1243752D01*
X83412948Y-26642857D02*
X82936757Y-26976190D01*
X83412948Y-27214285D02*
X82412948Y-27214285D01*
X82412948Y-27214285D02*
X82412948Y-26833333D01*
X82412948Y-26833333D02*
X82460567Y-26738095D01*
X82460567Y-26738095D02*
X82508186Y-26690476D01*
X82508186Y-26690476D02*
X82603424Y-26642857D01*
X82603424Y-26642857D02*
X82746281Y-26642857D01*
X82746281Y-26642857D02*
X82841519Y-26690476D01*
X82841519Y-26690476D02*
X82889138Y-26738095D01*
X82889138Y-26738095D02*
X82936757Y-26833333D01*
X82936757Y-26833333D02*
X82936757Y-27214285D01*
X83412948Y-25690476D02*
X83412948Y-26261904D01*
X83412948Y-25976190D02*
X82412948Y-25976190D01*
X82412948Y-25976190D02*
X82555805Y-26071428D01*
X82555805Y-26071428D02*
X82651043Y-26166666D01*
X82651043Y-26166666D02*
X82698662Y-26261904D01*
X82412948Y-24785714D02*
X82412948Y-25261904D01*
X82412948Y-25261904D02*
X82889138Y-25309523D01*
X82889138Y-25309523D02*
X82841519Y-25261904D01*
X82841519Y-25261904D02*
X82793900Y-25166666D01*
X82793900Y-25166666D02*
X82793900Y-24928571D01*
X82793900Y-24928571D02*
X82841519Y-24833333D01*
X82841519Y-24833333D02*
X82889138Y-24785714D01*
X82889138Y-24785714D02*
X82984376Y-24738095D01*
X82984376Y-24738095D02*
X83222471Y-24738095D01*
X83222471Y-24738095D02*
X83317709Y-24785714D01*
X83317709Y-24785714D02*
X83365329Y-24833333D01*
X83365329Y-24833333D02*
X83412948Y-24928571D01*
X83412948Y-24928571D02*
X83412948Y-25166666D01*
X83412948Y-25166666D02*
X83365329Y-25261904D01*
X83365329Y-25261904D02*
X83317709Y-25309523D01*
X76371078Y-26166666D02*
X75894887Y-26499999D01*
X76371078Y-26738094D02*
X75371078Y-26738094D01*
X75371078Y-26738094D02*
X75371078Y-26357142D01*
X75371078Y-26357142D02*
X75418697Y-26261904D01*
X75418697Y-26261904D02*
X75466316Y-26214285D01*
X75466316Y-26214285D02*
X75561554Y-26166666D01*
X75561554Y-26166666D02*
X75704411Y-26166666D01*
X75704411Y-26166666D02*
X75799649Y-26214285D01*
X75799649Y-26214285D02*
X75847268Y-26261904D01*
X75847268Y-26261904D02*
X75894887Y-26357142D01*
X75894887Y-26357142D02*
X75894887Y-26738094D01*
X76371078Y-25690475D02*
X76371078Y-25499999D01*
X76371078Y-25499999D02*
X76323459Y-25404761D01*
X76323459Y-25404761D02*
X76275839Y-25357142D01*
X76275839Y-25357142D02*
X76132982Y-25261904D01*
X76132982Y-25261904D02*
X75942506Y-25214285D01*
X75942506Y-25214285D02*
X75561554Y-25214285D01*
X75561554Y-25214285D02*
X75466316Y-25261904D01*
X75466316Y-25261904D02*
X75418697Y-25309523D01*
X75418697Y-25309523D02*
X75371078Y-25404761D01*
X75371078Y-25404761D02*
X75371078Y-25595237D01*
X75371078Y-25595237D02*
X75418697Y-25690475D01*
X75418697Y-25690475D02*
X75466316Y-25738094D01*
X75466316Y-25738094D02*
X75561554Y-25785713D01*
X75561554Y-25785713D02*
X75799649Y-25785713D01*
X75799649Y-25785713D02*
X75894887Y-25738094D01*
X75894887Y-25738094D02*
X75942506Y-25690475D01*
X75942506Y-25690475D02*
X75990125Y-25595237D01*
X75990125Y-25595237D02*
X75990125Y-25404761D01*
X75990125Y-25404761D02*
X75942506Y-25309523D01*
X75942506Y-25309523D02*
X75894887Y-25261904D01*
X75894887Y-25261904D02*
X75799649Y-25214285D01*
X25904762Y-43454819D02*
X26476190Y-43454819D01*
X26190476Y-44454819D02*
X26190476Y-43454819D01*
X26809524Y-43931009D02*
X27142857Y-43931009D01*
X27285714Y-44454819D02*
X26809524Y-44454819D01*
X26809524Y-44454819D02*
X26809524Y-43454819D01*
X26809524Y-43454819D02*
X27285714Y-43454819D01*
X27714286Y-43931009D02*
X28047619Y-43931009D01*
X28190476Y-44454819D02*
X27714286Y-44454819D01*
X27714286Y-44454819D02*
X27714286Y-43454819D01*
X27714286Y-43454819D02*
X28190476Y-43454819D01*
X28619048Y-44454819D02*
X28619048Y-43454819D01*
X28619048Y-43454819D02*
X29190476Y-44454819D01*
X29190476Y-44454819D02*
X29190476Y-43454819D01*
X29619048Y-44407200D02*
X29761905Y-44454819D01*
X29761905Y-44454819D02*
X30000000Y-44454819D01*
X30000000Y-44454819D02*
X30095238Y-44407200D01*
X30095238Y-44407200D02*
X30142857Y-44359580D01*
X30142857Y-44359580D02*
X30190476Y-44264342D01*
X30190476Y-44264342D02*
X30190476Y-44169104D01*
X30190476Y-44169104D02*
X30142857Y-44073866D01*
X30142857Y-44073866D02*
X30095238Y-44026247D01*
X30095238Y-44026247D02*
X30000000Y-43978628D01*
X30000000Y-43978628D02*
X29809524Y-43931009D01*
X29809524Y-43931009D02*
X29714286Y-43883390D01*
X29714286Y-43883390D02*
X29666667Y-43835771D01*
X29666667Y-43835771D02*
X29619048Y-43740533D01*
X29619048Y-43740533D02*
X29619048Y-43645295D01*
X29619048Y-43645295D02*
X29666667Y-43550057D01*
X29666667Y-43550057D02*
X29714286Y-43502438D01*
X29714286Y-43502438D02*
X29809524Y-43454819D01*
X29809524Y-43454819D02*
X30047619Y-43454819D01*
X30047619Y-43454819D02*
X30190476Y-43502438D01*
X30809524Y-43978628D02*
X30809524Y-44454819D01*
X30476191Y-43454819D02*
X30809524Y-43978628D01*
X30809524Y-43978628D02*
X31142857Y-43454819D01*
X32000000Y-44454819D02*
X31428572Y-44454819D01*
X31714286Y-44454819D02*
X31714286Y-43454819D01*
X31714286Y-43454819D02*
X31619048Y-43597676D01*
X31619048Y-43597676D02*
X31523810Y-43692914D01*
X31523810Y-43692914D02*
X31428572Y-43740533D01*
X52620952Y-47574819D02*
X52620952Y-46574819D01*
X52620952Y-46574819D02*
X52954285Y-47289104D01*
X52954285Y-47289104D02*
X53287618Y-46574819D01*
X53287618Y-46574819D02*
X53287618Y-47574819D01*
X53763809Y-47574819D02*
X53763809Y-46908152D01*
X53763809Y-46574819D02*
X53716190Y-46622438D01*
X53716190Y-46622438D02*
X53763809Y-46670057D01*
X53763809Y-46670057D02*
X53811428Y-46622438D01*
X53811428Y-46622438D02*
X53763809Y-46574819D01*
X53763809Y-46574819D02*
X53763809Y-46670057D01*
X54668570Y-47527200D02*
X54573332Y-47574819D01*
X54573332Y-47574819D02*
X54382856Y-47574819D01*
X54382856Y-47574819D02*
X54287618Y-47527200D01*
X54287618Y-47527200D02*
X54239999Y-47479580D01*
X54239999Y-47479580D02*
X54192380Y-47384342D01*
X54192380Y-47384342D02*
X54192380Y-47098628D01*
X54192380Y-47098628D02*
X54239999Y-47003390D01*
X54239999Y-47003390D02*
X54287618Y-46955771D01*
X54287618Y-46955771D02*
X54382856Y-46908152D01*
X54382856Y-46908152D02*
X54573332Y-46908152D01*
X54573332Y-46908152D02*
X54668570Y-46955771D01*
X55097142Y-47574819D02*
X55097142Y-46908152D01*
X55097142Y-47098628D02*
X55144761Y-47003390D01*
X55144761Y-47003390D02*
X55192380Y-46955771D01*
X55192380Y-46955771D02*
X55287618Y-46908152D01*
X55287618Y-46908152D02*
X55382856Y-46908152D01*
X55859047Y-47574819D02*
X55763809Y-47527200D01*
X55763809Y-47527200D02*
X55716190Y-47479580D01*
X55716190Y-47479580D02*
X55668571Y-47384342D01*
X55668571Y-47384342D02*
X55668571Y-47098628D01*
X55668571Y-47098628D02*
X55716190Y-47003390D01*
X55716190Y-47003390D02*
X55763809Y-46955771D01*
X55763809Y-46955771D02*
X55859047Y-46908152D01*
X55859047Y-46908152D02*
X56001904Y-46908152D01*
X56001904Y-46908152D02*
X56097142Y-46955771D01*
X56097142Y-46955771D02*
X56144761Y-47003390D01*
X56144761Y-47003390D02*
X56192380Y-47098628D01*
X56192380Y-47098628D02*
X56192380Y-47384342D01*
X56192380Y-47384342D02*
X56144761Y-47479580D01*
X56144761Y-47479580D02*
X56097142Y-47527200D01*
X56097142Y-47527200D02*
X56001904Y-47574819D01*
X56001904Y-47574819D02*
X55859047Y-47574819D01*
X57335238Y-47527200D02*
X57478095Y-47574819D01*
X57478095Y-47574819D02*
X57716190Y-47574819D01*
X57716190Y-47574819D02*
X57811428Y-47527200D01*
X57811428Y-47527200D02*
X57859047Y-47479580D01*
X57859047Y-47479580D02*
X57906666Y-47384342D01*
X57906666Y-47384342D02*
X57906666Y-47289104D01*
X57906666Y-47289104D02*
X57859047Y-47193866D01*
X57859047Y-47193866D02*
X57811428Y-47146247D01*
X57811428Y-47146247D02*
X57716190Y-47098628D01*
X57716190Y-47098628D02*
X57525714Y-47051009D01*
X57525714Y-47051009D02*
X57430476Y-47003390D01*
X57430476Y-47003390D02*
X57382857Y-46955771D01*
X57382857Y-46955771D02*
X57335238Y-46860533D01*
X57335238Y-46860533D02*
X57335238Y-46765295D01*
X57335238Y-46765295D02*
X57382857Y-46670057D01*
X57382857Y-46670057D02*
X57430476Y-46622438D01*
X57430476Y-46622438D02*
X57525714Y-46574819D01*
X57525714Y-46574819D02*
X57763809Y-46574819D01*
X57763809Y-46574819D02*
X57906666Y-46622438D01*
X58335238Y-47574819D02*
X58335238Y-46574819D01*
X58335238Y-46574819D02*
X58573333Y-46574819D01*
X58573333Y-46574819D02*
X58716190Y-46622438D01*
X58716190Y-46622438D02*
X58811428Y-46717676D01*
X58811428Y-46717676D02*
X58859047Y-46812914D01*
X58859047Y-46812914D02*
X58906666Y-47003390D01*
X58906666Y-47003390D02*
X58906666Y-47146247D01*
X58906666Y-47146247D02*
X58859047Y-47336723D01*
X58859047Y-47336723D02*
X58811428Y-47431961D01*
X58811428Y-47431961D02*
X58716190Y-47527200D01*
X58716190Y-47527200D02*
X58573333Y-47574819D01*
X58573333Y-47574819D02*
X58335238Y-47574819D01*
X4394819Y-48381904D02*
X5204342Y-48381904D01*
X5204342Y-48381904D02*
X5299580Y-48334285D01*
X5299580Y-48334285D02*
X5347200Y-48286666D01*
X5347200Y-48286666D02*
X5394819Y-48191428D01*
X5394819Y-48191428D02*
X5394819Y-48000952D01*
X5394819Y-48000952D02*
X5347200Y-47905714D01*
X5347200Y-47905714D02*
X5299580Y-47858095D01*
X5299580Y-47858095D02*
X5204342Y-47810476D01*
X5204342Y-47810476D02*
X4394819Y-47810476D01*
X5347200Y-47381904D02*
X5394819Y-47239047D01*
X5394819Y-47239047D02*
X5394819Y-47000952D01*
X5394819Y-47000952D02*
X5347200Y-46905714D01*
X5347200Y-46905714D02*
X5299580Y-46858095D01*
X5299580Y-46858095D02*
X5204342Y-46810476D01*
X5204342Y-46810476D02*
X5109104Y-46810476D01*
X5109104Y-46810476D02*
X5013866Y-46858095D01*
X5013866Y-46858095D02*
X4966247Y-46905714D01*
X4966247Y-46905714D02*
X4918628Y-47000952D01*
X4918628Y-47000952D02*
X4871009Y-47191428D01*
X4871009Y-47191428D02*
X4823390Y-47286666D01*
X4823390Y-47286666D02*
X4775771Y-47334285D01*
X4775771Y-47334285D02*
X4680533Y-47381904D01*
X4680533Y-47381904D02*
X4585295Y-47381904D01*
X4585295Y-47381904D02*
X4490057Y-47334285D01*
X4490057Y-47334285D02*
X4442438Y-47286666D01*
X4442438Y-47286666D02*
X4394819Y-47191428D01*
X4394819Y-47191428D02*
X4394819Y-46953333D01*
X4394819Y-46953333D02*
X4442438Y-46810476D01*
X4871009Y-46048571D02*
X4918628Y-45905714D01*
X4918628Y-45905714D02*
X4966247Y-45858095D01*
X4966247Y-45858095D02*
X5061485Y-45810476D01*
X5061485Y-45810476D02*
X5204342Y-45810476D01*
X5204342Y-45810476D02*
X5299580Y-45858095D01*
X5299580Y-45858095D02*
X5347200Y-45905714D01*
X5347200Y-45905714D02*
X5394819Y-46000952D01*
X5394819Y-46000952D02*
X5394819Y-46381904D01*
X5394819Y-46381904D02*
X4394819Y-46381904D01*
X4394819Y-46381904D02*
X4394819Y-46048571D01*
X4394819Y-46048571D02*
X4442438Y-45953333D01*
X4442438Y-45953333D02*
X4490057Y-45905714D01*
X4490057Y-45905714D02*
X4585295Y-45858095D01*
X4585295Y-45858095D02*
X4680533Y-45858095D01*
X4680533Y-45858095D02*
X4775771Y-45905714D01*
X4775771Y-45905714D02*
X4823390Y-45953333D01*
X4823390Y-45953333D02*
X4871009Y-46048571D01*
X4871009Y-46048571D02*
X4871009Y-46381904D01*
X9834676Y-49064019D02*
X9834676Y-49873542D01*
X9834676Y-49873542D02*
X9882295Y-49968780D01*
X9882295Y-49968780D02*
X9929914Y-50016400D01*
X9929914Y-50016400D02*
X10025152Y-50064019D01*
X10025152Y-50064019D02*
X10215628Y-50064019D01*
X10215628Y-50064019D02*
X10310866Y-50016400D01*
X10310866Y-50016400D02*
X10358485Y-49968780D01*
X10358485Y-49968780D02*
X10406104Y-49873542D01*
X10406104Y-49873542D02*
X10406104Y-49064019D01*
X10834676Y-50016400D02*
X10977533Y-50064019D01*
X10977533Y-50064019D02*
X11215628Y-50064019D01*
X11215628Y-50064019D02*
X11310866Y-50016400D01*
X11310866Y-50016400D02*
X11358485Y-49968780D01*
X11358485Y-49968780D02*
X11406104Y-49873542D01*
X11406104Y-49873542D02*
X11406104Y-49778304D01*
X11406104Y-49778304D02*
X11358485Y-49683066D01*
X11358485Y-49683066D02*
X11310866Y-49635447D01*
X11310866Y-49635447D02*
X11215628Y-49587828D01*
X11215628Y-49587828D02*
X11025152Y-49540209D01*
X11025152Y-49540209D02*
X10929914Y-49492590D01*
X10929914Y-49492590D02*
X10882295Y-49444971D01*
X10882295Y-49444971D02*
X10834676Y-49349733D01*
X10834676Y-49349733D02*
X10834676Y-49254495D01*
X10834676Y-49254495D02*
X10882295Y-49159257D01*
X10882295Y-49159257D02*
X10929914Y-49111638D01*
X10929914Y-49111638D02*
X11025152Y-49064019D01*
X11025152Y-49064019D02*
X11263247Y-49064019D01*
X11263247Y-49064019D02*
X11406104Y-49111638D01*
X12168009Y-49540209D02*
X12310866Y-49587828D01*
X12310866Y-49587828D02*
X12358485Y-49635447D01*
X12358485Y-49635447D02*
X12406104Y-49730685D01*
X12406104Y-49730685D02*
X12406104Y-49873542D01*
X12406104Y-49873542D02*
X12358485Y-49968780D01*
X12358485Y-49968780D02*
X12310866Y-50016400D01*
X12310866Y-50016400D02*
X12215628Y-50064019D01*
X12215628Y-50064019D02*
X11834676Y-50064019D01*
X11834676Y-50064019D02*
X11834676Y-49064019D01*
X11834676Y-49064019D02*
X12168009Y-49064019D01*
X12168009Y-49064019D02*
X12263247Y-49111638D01*
X12263247Y-49111638D02*
X12310866Y-49159257D01*
X12310866Y-49159257D02*
X12358485Y-49254495D01*
X12358485Y-49254495D02*
X12358485Y-49349733D01*
X12358485Y-49349733D02*
X12310866Y-49444971D01*
X12310866Y-49444971D02*
X12263247Y-49492590D01*
X12263247Y-49492590D02*
X12168009Y-49540209D01*
X12168009Y-49540209D02*
X11834676Y-49540209D01*
X13596581Y-50064019D02*
X13596581Y-49064019D01*
X13596581Y-49540209D02*
X14168009Y-49540209D01*
X14168009Y-50064019D02*
X14168009Y-49064019D01*
X14787057Y-50064019D02*
X14691819Y-50016400D01*
X14691819Y-50016400D02*
X14644200Y-49968780D01*
X14644200Y-49968780D02*
X14596581Y-49873542D01*
X14596581Y-49873542D02*
X14596581Y-49587828D01*
X14596581Y-49587828D02*
X14644200Y-49492590D01*
X14644200Y-49492590D02*
X14691819Y-49444971D01*
X14691819Y-49444971D02*
X14787057Y-49397352D01*
X14787057Y-49397352D02*
X14929914Y-49397352D01*
X14929914Y-49397352D02*
X15025152Y-49444971D01*
X15025152Y-49444971D02*
X15072771Y-49492590D01*
X15072771Y-49492590D02*
X15120390Y-49587828D01*
X15120390Y-49587828D02*
X15120390Y-49873542D01*
X15120390Y-49873542D02*
X15072771Y-49968780D01*
X15072771Y-49968780D02*
X15025152Y-50016400D01*
X15025152Y-50016400D02*
X14929914Y-50064019D01*
X14929914Y-50064019D02*
X14787057Y-50064019D01*
X15501343Y-50016400D02*
X15596581Y-50064019D01*
X15596581Y-50064019D02*
X15787057Y-50064019D01*
X15787057Y-50064019D02*
X15882295Y-50016400D01*
X15882295Y-50016400D02*
X15929914Y-49921161D01*
X15929914Y-49921161D02*
X15929914Y-49873542D01*
X15929914Y-49873542D02*
X15882295Y-49778304D01*
X15882295Y-49778304D02*
X15787057Y-49730685D01*
X15787057Y-49730685D02*
X15644200Y-49730685D01*
X15644200Y-49730685D02*
X15548962Y-49683066D01*
X15548962Y-49683066D02*
X15501343Y-49587828D01*
X15501343Y-49587828D02*
X15501343Y-49540209D01*
X15501343Y-49540209D02*
X15548962Y-49444971D01*
X15548962Y-49444971D02*
X15644200Y-49397352D01*
X15644200Y-49397352D02*
X15787057Y-49397352D01*
X15787057Y-49397352D02*
X15882295Y-49444971D01*
X16215629Y-49397352D02*
X16596581Y-49397352D01*
X16358486Y-49064019D02*
X16358486Y-49921161D01*
X16358486Y-49921161D02*
X16406105Y-50016400D01*
X16406105Y-50016400D02*
X16501343Y-50064019D01*
X16501343Y-50064019D02*
X16596581Y-50064019D01*
X86933883Y-26642857D02*
X86457692Y-26976190D01*
X86933883Y-27214285D02*
X85933883Y-27214285D01*
X85933883Y-27214285D02*
X85933883Y-26833333D01*
X85933883Y-26833333D02*
X85981502Y-26738095D01*
X85981502Y-26738095D02*
X86029121Y-26690476D01*
X86029121Y-26690476D02*
X86124359Y-26642857D01*
X86124359Y-26642857D02*
X86267216Y-26642857D01*
X86267216Y-26642857D02*
X86362454Y-26690476D01*
X86362454Y-26690476D02*
X86410073Y-26738095D01*
X86410073Y-26738095D02*
X86457692Y-26833333D01*
X86457692Y-26833333D02*
X86457692Y-27214285D01*
X86933883Y-25690476D02*
X86933883Y-26261904D01*
X86933883Y-25976190D02*
X85933883Y-25976190D01*
X85933883Y-25976190D02*
X86076740Y-26071428D01*
X86076740Y-26071428D02*
X86171978Y-26166666D01*
X86171978Y-26166666D02*
X86219597Y-26261904D01*
X85933883Y-24833333D02*
X85933883Y-25023809D01*
X85933883Y-25023809D02*
X85981502Y-25119047D01*
X85981502Y-25119047D02*
X86029121Y-25166666D01*
X86029121Y-25166666D02*
X86171978Y-25261904D01*
X86171978Y-25261904D02*
X86362454Y-25309523D01*
X86362454Y-25309523D02*
X86743406Y-25309523D01*
X86743406Y-25309523D02*
X86838644Y-25261904D01*
X86838644Y-25261904D02*
X86886264Y-25214285D01*
X86886264Y-25214285D02*
X86933883Y-25119047D01*
X86933883Y-25119047D02*
X86933883Y-24928571D01*
X86933883Y-24928571D02*
X86886264Y-24833333D01*
X86886264Y-24833333D02*
X86838644Y-24785714D01*
X86838644Y-24785714D02*
X86743406Y-24738095D01*
X86743406Y-24738095D02*
X86505311Y-24738095D01*
X86505311Y-24738095D02*
X86410073Y-24785714D01*
X86410073Y-24785714D02*
X86362454Y-24833333D01*
X86362454Y-24833333D02*
X86314835Y-24928571D01*
X86314835Y-24928571D02*
X86314835Y-25119047D01*
X86314835Y-25119047D02*
X86362454Y-25214285D01*
X86362454Y-25214285D02*
X86410073Y-25261904D01*
X86410073Y-25261904D02*
X86505311Y-25309523D01*
X30454819Y-25166666D02*
X29978628Y-25499999D01*
X30454819Y-25738094D02*
X29454819Y-25738094D01*
X29454819Y-25738094D02*
X29454819Y-25357142D01*
X29454819Y-25357142D02*
X29502438Y-25261904D01*
X29502438Y-25261904D02*
X29550057Y-25214285D01*
X29550057Y-25214285D02*
X29645295Y-25166666D01*
X29645295Y-25166666D02*
X29788152Y-25166666D01*
X29788152Y-25166666D02*
X29883390Y-25214285D01*
X29883390Y-25214285D02*
X29931009Y-25261904D01*
X29931009Y-25261904D02*
X29978628Y-25357142D01*
X29978628Y-25357142D02*
X29978628Y-25738094D01*
X29788152Y-24309523D02*
X30454819Y-24309523D01*
X29407200Y-24547618D02*
X30121485Y-24785713D01*
X30121485Y-24785713D02*
X30121485Y-24166666D01*
X42359580Y-68416666D02*
X42407200Y-68464285D01*
X42407200Y-68464285D02*
X42454819Y-68607142D01*
X42454819Y-68607142D02*
X42454819Y-68702380D01*
X42454819Y-68702380D02*
X42407200Y-68845237D01*
X42407200Y-68845237D02*
X42311961Y-68940475D01*
X42311961Y-68940475D02*
X42216723Y-68988094D01*
X42216723Y-68988094D02*
X42026247Y-69035713D01*
X42026247Y-69035713D02*
X41883390Y-69035713D01*
X41883390Y-69035713D02*
X41692914Y-68988094D01*
X41692914Y-68988094D02*
X41597676Y-68940475D01*
X41597676Y-68940475D02*
X41502438Y-68845237D01*
X41502438Y-68845237D02*
X41454819Y-68702380D01*
X41454819Y-68702380D02*
X41454819Y-68607142D01*
X41454819Y-68607142D02*
X41502438Y-68464285D01*
X41502438Y-68464285D02*
X41550057Y-68416666D01*
X42454819Y-67464285D02*
X42454819Y-68035713D01*
X42454819Y-67749999D02*
X41454819Y-67749999D01*
X41454819Y-67749999D02*
X41597676Y-67845237D01*
X41597676Y-67845237D02*
X41692914Y-67940475D01*
X41692914Y-67940475D02*
X41740533Y-68035713D01*
X23954819Y-67166666D02*
X23478628Y-67499999D01*
X23954819Y-67738094D02*
X22954819Y-67738094D01*
X22954819Y-67738094D02*
X22954819Y-67357142D01*
X22954819Y-67357142D02*
X23002438Y-67261904D01*
X23002438Y-67261904D02*
X23050057Y-67214285D01*
X23050057Y-67214285D02*
X23145295Y-67166666D01*
X23145295Y-67166666D02*
X23288152Y-67166666D01*
X23288152Y-67166666D02*
X23383390Y-67214285D01*
X23383390Y-67214285D02*
X23431009Y-67261904D01*
X23431009Y-67261904D02*
X23478628Y-67357142D01*
X23478628Y-67357142D02*
X23478628Y-67738094D01*
X22954819Y-66833332D02*
X22954819Y-66214285D01*
X22954819Y-66214285D02*
X23335771Y-66547618D01*
X23335771Y-66547618D02*
X23335771Y-66404761D01*
X23335771Y-66404761D02*
X23383390Y-66309523D01*
X23383390Y-66309523D02*
X23431009Y-66261904D01*
X23431009Y-66261904D02*
X23526247Y-66214285D01*
X23526247Y-66214285D02*
X23764342Y-66214285D01*
X23764342Y-66214285D02*
X23859580Y-66261904D01*
X23859580Y-66261904D02*
X23907200Y-66309523D01*
X23907200Y-66309523D02*
X23954819Y-66404761D01*
X23954819Y-66404761D02*
X23954819Y-66690475D01*
X23954819Y-66690475D02*
X23907200Y-66785713D01*
X23907200Y-66785713D02*
X23859580Y-66833332D01*
X36761905Y-17954819D02*
X36761905Y-16954819D01*
X36761905Y-16954819D02*
X37000000Y-16954819D01*
X37000000Y-16954819D02*
X37142857Y-17002438D01*
X37142857Y-17002438D02*
X37238095Y-17097676D01*
X37238095Y-17097676D02*
X37285714Y-17192914D01*
X37285714Y-17192914D02*
X37333333Y-17383390D01*
X37333333Y-17383390D02*
X37333333Y-17526247D01*
X37333333Y-17526247D02*
X37285714Y-17716723D01*
X37285714Y-17716723D02*
X37238095Y-17811961D01*
X37238095Y-17811961D02*
X37142857Y-17907200D01*
X37142857Y-17907200D02*
X37000000Y-17954819D01*
X37000000Y-17954819D02*
X36761905Y-17954819D01*
X37714286Y-17050057D02*
X37761905Y-17002438D01*
X37761905Y-17002438D02*
X37857143Y-16954819D01*
X37857143Y-16954819D02*
X38095238Y-16954819D01*
X38095238Y-16954819D02*
X38190476Y-17002438D01*
X38190476Y-17002438D02*
X38238095Y-17050057D01*
X38238095Y-17050057D02*
X38285714Y-17145295D01*
X38285714Y-17145295D02*
X38285714Y-17240533D01*
X38285714Y-17240533D02*
X38238095Y-17383390D01*
X38238095Y-17383390D02*
X37666667Y-17954819D01*
X37666667Y-17954819D02*
X38285714Y-17954819D01*
X55245466Y-26166666D02*
X54769275Y-26499999D01*
X55245466Y-26738094D02*
X54245466Y-26738094D01*
X54245466Y-26738094D02*
X54245466Y-26357142D01*
X54245466Y-26357142D02*
X54293085Y-26261904D01*
X54293085Y-26261904D02*
X54340704Y-26214285D01*
X54340704Y-26214285D02*
X54435942Y-26166666D01*
X54435942Y-26166666D02*
X54578799Y-26166666D01*
X54578799Y-26166666D02*
X54674037Y-26214285D01*
X54674037Y-26214285D02*
X54721656Y-26261904D01*
X54721656Y-26261904D02*
X54769275Y-26357142D01*
X54769275Y-26357142D02*
X54769275Y-26738094D01*
X54245466Y-25309523D02*
X54245466Y-25499999D01*
X54245466Y-25499999D02*
X54293085Y-25595237D01*
X54293085Y-25595237D02*
X54340704Y-25642856D01*
X54340704Y-25642856D02*
X54483561Y-25738094D01*
X54483561Y-25738094D02*
X54674037Y-25785713D01*
X54674037Y-25785713D02*
X55054989Y-25785713D01*
X55054989Y-25785713D02*
X55150227Y-25738094D01*
X55150227Y-25738094D02*
X55197847Y-25690475D01*
X55197847Y-25690475D02*
X55245466Y-25595237D01*
X55245466Y-25595237D02*
X55245466Y-25404761D01*
X55245466Y-25404761D02*
X55197847Y-25309523D01*
X55197847Y-25309523D02*
X55150227Y-25261904D01*
X55150227Y-25261904D02*
X55054989Y-25214285D01*
X55054989Y-25214285D02*
X54816894Y-25214285D01*
X54816894Y-25214285D02*
X54721656Y-25261904D01*
X54721656Y-25261904D02*
X54674037Y-25309523D01*
X54674037Y-25309523D02*
X54626418Y-25404761D01*
X54626418Y-25404761D02*
X54626418Y-25595237D01*
X54626418Y-25595237D02*
X54674037Y-25690475D01*
X54674037Y-25690475D02*
X54721656Y-25738094D01*
X54721656Y-25738094D02*
X54816894Y-25785713D01*
X79892013Y-26642857D02*
X79415822Y-26976190D01*
X79892013Y-27214285D02*
X78892013Y-27214285D01*
X78892013Y-27214285D02*
X78892013Y-26833333D01*
X78892013Y-26833333D02*
X78939632Y-26738095D01*
X78939632Y-26738095D02*
X78987251Y-26690476D01*
X78987251Y-26690476D02*
X79082489Y-26642857D01*
X79082489Y-26642857D02*
X79225346Y-26642857D01*
X79225346Y-26642857D02*
X79320584Y-26690476D01*
X79320584Y-26690476D02*
X79368203Y-26738095D01*
X79368203Y-26738095D02*
X79415822Y-26833333D01*
X79415822Y-26833333D02*
X79415822Y-27214285D01*
X79892013Y-25690476D02*
X79892013Y-26261904D01*
X79892013Y-25976190D02*
X78892013Y-25976190D01*
X78892013Y-25976190D02*
X79034870Y-26071428D01*
X79034870Y-26071428D02*
X79130108Y-26166666D01*
X79130108Y-26166666D02*
X79177727Y-26261904D01*
X78892013Y-25071428D02*
X78892013Y-24976190D01*
X78892013Y-24976190D02*
X78939632Y-24880952D01*
X78939632Y-24880952D02*
X78987251Y-24833333D01*
X78987251Y-24833333D02*
X79082489Y-24785714D01*
X79082489Y-24785714D02*
X79272965Y-24738095D01*
X79272965Y-24738095D02*
X79511060Y-24738095D01*
X79511060Y-24738095D02*
X79701536Y-24785714D01*
X79701536Y-24785714D02*
X79796774Y-24833333D01*
X79796774Y-24833333D02*
X79844394Y-24880952D01*
X79844394Y-24880952D02*
X79892013Y-24976190D01*
X79892013Y-24976190D02*
X79892013Y-25071428D01*
X79892013Y-25071428D02*
X79844394Y-25166666D01*
X79844394Y-25166666D02*
X79796774Y-25214285D01*
X79796774Y-25214285D02*
X79701536Y-25261904D01*
X79701536Y-25261904D02*
X79511060Y-25309523D01*
X79511060Y-25309523D02*
X79272965Y-25309523D01*
X79272965Y-25309523D02*
X79082489Y-25261904D01*
X79082489Y-25261904D02*
X78987251Y-25214285D01*
X78987251Y-25214285D02*
X78939632Y-25166666D01*
X78939632Y-25166666D02*
X78892013Y-25071428D01*
X31954819Y-68766904D02*
X32764342Y-68766904D01*
X32764342Y-68766904D02*
X32859580Y-68719285D01*
X32859580Y-68719285D02*
X32907200Y-68671666D01*
X32907200Y-68671666D02*
X32954819Y-68576428D01*
X32954819Y-68576428D02*
X32954819Y-68385952D01*
X32954819Y-68385952D02*
X32907200Y-68290714D01*
X32907200Y-68290714D02*
X32859580Y-68243095D01*
X32859580Y-68243095D02*
X32764342Y-68195476D01*
X32764342Y-68195476D02*
X31954819Y-68195476D01*
X32050057Y-67766904D02*
X32002438Y-67719285D01*
X32002438Y-67719285D02*
X31954819Y-67624047D01*
X31954819Y-67624047D02*
X31954819Y-67385952D01*
X31954819Y-67385952D02*
X32002438Y-67290714D01*
X32002438Y-67290714D02*
X32050057Y-67243095D01*
X32050057Y-67243095D02*
X32145295Y-67195476D01*
X32145295Y-67195476D02*
X32240533Y-67195476D01*
X32240533Y-67195476D02*
X32383390Y-67243095D01*
X32383390Y-67243095D02*
X32954819Y-67814523D01*
X32954819Y-67814523D02*
X32954819Y-67195476D01*
X56285714Y-61202438D02*
X56190476Y-61154819D01*
X56190476Y-61154819D02*
X56047619Y-61154819D01*
X56047619Y-61154819D02*
X55904762Y-61202438D01*
X55904762Y-61202438D02*
X55809524Y-61297676D01*
X55809524Y-61297676D02*
X55761905Y-61392914D01*
X55761905Y-61392914D02*
X55714286Y-61583390D01*
X55714286Y-61583390D02*
X55714286Y-61726247D01*
X55714286Y-61726247D02*
X55761905Y-61916723D01*
X55761905Y-61916723D02*
X55809524Y-62011961D01*
X55809524Y-62011961D02*
X55904762Y-62107200D01*
X55904762Y-62107200D02*
X56047619Y-62154819D01*
X56047619Y-62154819D02*
X56142857Y-62154819D01*
X56142857Y-62154819D02*
X56285714Y-62107200D01*
X56285714Y-62107200D02*
X56333333Y-62059580D01*
X56333333Y-62059580D02*
X56333333Y-61726247D01*
X56333333Y-61726247D02*
X56142857Y-61726247D01*
X57285714Y-62154819D02*
X56714286Y-62154819D01*
X57000000Y-62154819D02*
X57000000Y-61154819D01*
X57000000Y-61154819D02*
X56904762Y-61297676D01*
X56904762Y-61297676D02*
X56809524Y-61392914D01*
X56809524Y-61392914D02*
X56714286Y-61440533D01*
X1944971Y-66233955D02*
X2754494Y-66233955D01*
X2754494Y-66233955D02*
X2849732Y-66186336D01*
X2849732Y-66186336D02*
X2897352Y-66138717D01*
X2897352Y-66138717D02*
X2944971Y-66043479D01*
X2944971Y-66043479D02*
X2944971Y-65853003D01*
X2944971Y-65853003D02*
X2897352Y-65757765D01*
X2897352Y-65757765D02*
X2849732Y-65710146D01*
X2849732Y-65710146D02*
X2754494Y-65662527D01*
X2754494Y-65662527D02*
X1944971Y-65662527D01*
X2897352Y-65233955D02*
X2944971Y-65091098D01*
X2944971Y-65091098D02*
X2944971Y-64853003D01*
X2944971Y-64853003D02*
X2897352Y-64757765D01*
X2897352Y-64757765D02*
X2849732Y-64710146D01*
X2849732Y-64710146D02*
X2754494Y-64662527D01*
X2754494Y-64662527D02*
X2659256Y-64662527D01*
X2659256Y-64662527D02*
X2564018Y-64710146D01*
X2564018Y-64710146D02*
X2516399Y-64757765D01*
X2516399Y-64757765D02*
X2468780Y-64853003D01*
X2468780Y-64853003D02*
X2421161Y-65043479D01*
X2421161Y-65043479D02*
X2373542Y-65138717D01*
X2373542Y-65138717D02*
X2325923Y-65186336D01*
X2325923Y-65186336D02*
X2230685Y-65233955D01*
X2230685Y-65233955D02*
X2135447Y-65233955D01*
X2135447Y-65233955D02*
X2040209Y-65186336D01*
X2040209Y-65186336D02*
X1992590Y-65138717D01*
X1992590Y-65138717D02*
X1944971Y-65043479D01*
X1944971Y-65043479D02*
X1944971Y-64805384D01*
X1944971Y-64805384D02*
X1992590Y-64662527D01*
X2421161Y-63900622D02*
X2468780Y-63757765D01*
X2468780Y-63757765D02*
X2516399Y-63710146D01*
X2516399Y-63710146D02*
X2611637Y-63662527D01*
X2611637Y-63662527D02*
X2754494Y-63662527D01*
X2754494Y-63662527D02*
X2849732Y-63710146D01*
X2849732Y-63710146D02*
X2897352Y-63757765D01*
X2897352Y-63757765D02*
X2944971Y-63853003D01*
X2944971Y-63853003D02*
X2944971Y-64233955D01*
X2944971Y-64233955D02*
X1944971Y-64233955D01*
X1944971Y-64233955D02*
X1944971Y-63900622D01*
X1944971Y-63900622D02*
X1992590Y-63805384D01*
X1992590Y-63805384D02*
X2040209Y-63757765D01*
X2040209Y-63757765D02*
X2135447Y-63710146D01*
X2135447Y-63710146D02*
X2230685Y-63710146D01*
X2230685Y-63710146D02*
X2325923Y-63757765D01*
X2325923Y-63757765D02*
X2373542Y-63805384D01*
X2373542Y-63805384D02*
X2421161Y-63900622D01*
X2421161Y-63900622D02*
X2421161Y-64233955D01*
X2944971Y-62710146D02*
X2944971Y-63281574D01*
X2944971Y-62995860D02*
X1944971Y-62995860D01*
X1944971Y-62995860D02*
X2087828Y-63091098D01*
X2087828Y-63091098D02*
X2183066Y-63186336D01*
X2183066Y-63186336D02*
X2230685Y-63281574D01*
X62814762Y815180D02*
X62814762Y1815180D01*
X62814762Y1815180D02*
X63148095Y1100895D01*
X63148095Y1100895D02*
X63481428Y1815180D01*
X63481428Y1815180D02*
X63481428Y815180D01*
X63957619Y815180D02*
X63957619Y1815180D01*
X64433809Y815180D02*
X64433809Y1815180D01*
X64433809Y1815180D02*
X64671904Y1815180D01*
X64671904Y1815180D02*
X64814761Y1767561D01*
X64814761Y1767561D02*
X64909999Y1672323D01*
X64909999Y1672323D02*
X64957618Y1577085D01*
X64957618Y1577085D02*
X65005237Y1386609D01*
X65005237Y1386609D02*
X65005237Y1243752D01*
X65005237Y1243752D02*
X64957618Y1053276D01*
X64957618Y1053276D02*
X64909999Y958038D01*
X64909999Y958038D02*
X64814761Y862800D01*
X64814761Y862800D02*
X64671904Y815180D01*
X64671904Y815180D02*
X64433809Y815180D01*
X65433809Y815180D02*
X65433809Y1815180D01*
X65671904Y719942D02*
X66433808Y719942D01*
X66862380Y1815180D02*
X67052856Y1815180D01*
X67052856Y1815180D02*
X67148094Y1767561D01*
X67148094Y1767561D02*
X67243332Y1672323D01*
X67243332Y1672323D02*
X67290951Y1481847D01*
X67290951Y1481847D02*
X67290951Y1148514D01*
X67290951Y1148514D02*
X67243332Y958038D01*
X67243332Y958038D02*
X67148094Y862800D01*
X67148094Y862800D02*
X67052856Y815180D01*
X67052856Y815180D02*
X66862380Y815180D01*
X66862380Y815180D02*
X66767142Y862800D01*
X66767142Y862800D02*
X66671904Y958038D01*
X66671904Y958038D02*
X66624285Y1148514D01*
X66624285Y1148514D02*
X66624285Y1481847D01*
X66624285Y1481847D02*
X66671904Y1672323D01*
X66671904Y1672323D02*
X66767142Y1767561D01*
X66767142Y1767561D02*
X66862380Y1815180D01*
X67719523Y1815180D02*
X67719523Y1005657D01*
X67719523Y1005657D02*
X67767142Y910419D01*
X67767142Y910419D02*
X67814761Y862800D01*
X67814761Y862800D02*
X67909999Y815180D01*
X67909999Y815180D02*
X68100475Y815180D01*
X68100475Y815180D02*
X68195713Y862800D01*
X68195713Y862800D02*
X68243332Y910419D01*
X68243332Y910419D02*
X68290951Y1005657D01*
X68290951Y1005657D02*
X68290951Y1815180D01*
X68624285Y1815180D02*
X69195713Y1815180D01*
X68909999Y815180D02*
X68909999Y1815180D01*
X69957618Y1481847D02*
X69957618Y815180D01*
X69719523Y1862800D02*
X69481428Y1148514D01*
X69481428Y1148514D02*
X70100475Y1148514D01*
X90454819Y-26642857D02*
X89978628Y-26976190D01*
X90454819Y-27214285D02*
X89454819Y-27214285D01*
X89454819Y-27214285D02*
X89454819Y-26833333D01*
X89454819Y-26833333D02*
X89502438Y-26738095D01*
X89502438Y-26738095D02*
X89550057Y-26690476D01*
X89550057Y-26690476D02*
X89645295Y-26642857D01*
X89645295Y-26642857D02*
X89788152Y-26642857D01*
X89788152Y-26642857D02*
X89883390Y-26690476D01*
X89883390Y-26690476D02*
X89931009Y-26738095D01*
X89931009Y-26738095D02*
X89978628Y-26833333D01*
X89978628Y-26833333D02*
X89978628Y-27214285D01*
X90454819Y-25690476D02*
X90454819Y-26261904D01*
X90454819Y-25976190D02*
X89454819Y-25976190D01*
X89454819Y-25976190D02*
X89597676Y-26071428D01*
X89597676Y-26071428D02*
X89692914Y-26166666D01*
X89692914Y-26166666D02*
X89740533Y-26261904D01*
X89454819Y-25357142D02*
X89454819Y-24738095D01*
X89454819Y-24738095D02*
X89835771Y-25071428D01*
X89835771Y-25071428D02*
X89835771Y-24928571D01*
X89835771Y-24928571D02*
X89883390Y-24833333D01*
X89883390Y-24833333D02*
X89931009Y-24785714D01*
X89931009Y-24785714D02*
X90026247Y-24738095D01*
X90026247Y-24738095D02*
X90264342Y-24738095D01*
X90264342Y-24738095D02*
X90359580Y-24785714D01*
X90359580Y-24785714D02*
X90407200Y-24833333D01*
X90407200Y-24833333D02*
X90454819Y-24928571D01*
X90454819Y-24928571D02*
X90454819Y-25214285D01*
X90454819Y-25214285D02*
X90407200Y-25309523D01*
X90407200Y-25309523D02*
X90359580Y-25357142D01*
X48359580Y-26416666D02*
X48407200Y-26464285D01*
X48407200Y-26464285D02*
X48454819Y-26607142D01*
X48454819Y-26607142D02*
X48454819Y-26702380D01*
X48454819Y-26702380D02*
X48407200Y-26845237D01*
X48407200Y-26845237D02*
X48311961Y-26940475D01*
X48311961Y-26940475D02*
X48216723Y-26988094D01*
X48216723Y-26988094D02*
X48026247Y-27035713D01*
X48026247Y-27035713D02*
X47883390Y-27035713D01*
X47883390Y-27035713D02*
X47692914Y-26988094D01*
X47692914Y-26988094D02*
X47597676Y-26940475D01*
X47597676Y-26940475D02*
X47502438Y-26845237D01*
X47502438Y-26845237D02*
X47454819Y-26702380D01*
X47454819Y-26702380D02*
X47454819Y-26607142D01*
X47454819Y-26607142D02*
X47502438Y-26464285D01*
X47502438Y-26464285D02*
X47550057Y-26416666D01*
X47550057Y-26035713D02*
X47502438Y-25988094D01*
X47502438Y-25988094D02*
X47454819Y-25892856D01*
X47454819Y-25892856D02*
X47454819Y-25654761D01*
X47454819Y-25654761D02*
X47502438Y-25559523D01*
X47502438Y-25559523D02*
X47550057Y-25511904D01*
X47550057Y-25511904D02*
X47645295Y-25464285D01*
X47645295Y-25464285D02*
X47740533Y-25464285D01*
X47740533Y-25464285D02*
X47883390Y-25511904D01*
X47883390Y-25511904D02*
X48454819Y-26083332D01*
X48454819Y-26083332D02*
X48454819Y-25464285D01*
X34059762Y815180D02*
X34059762Y1815180D01*
X34059762Y1815180D02*
X34393095Y1100895D01*
X34393095Y1100895D02*
X34726428Y1815180D01*
X34726428Y1815180D02*
X34726428Y815180D01*
X35202619Y815180D02*
X35202619Y1815180D01*
X35678809Y815180D02*
X35678809Y1815180D01*
X35678809Y1815180D02*
X35916904Y1815180D01*
X35916904Y1815180D02*
X36059761Y1767561D01*
X36059761Y1767561D02*
X36154999Y1672323D01*
X36154999Y1672323D02*
X36202618Y1577085D01*
X36202618Y1577085D02*
X36250237Y1386609D01*
X36250237Y1386609D02*
X36250237Y1243752D01*
X36250237Y1243752D02*
X36202618Y1053276D01*
X36202618Y1053276D02*
X36154999Y958038D01*
X36154999Y958038D02*
X36059761Y862800D01*
X36059761Y862800D02*
X35916904Y815180D01*
X35916904Y815180D02*
X35678809Y815180D01*
X36678809Y815180D02*
X36678809Y1815180D01*
X36916904Y719942D02*
X37678808Y719942D01*
X38107380Y1815180D02*
X38297856Y1815180D01*
X38297856Y1815180D02*
X38393094Y1767561D01*
X38393094Y1767561D02*
X38488332Y1672323D01*
X38488332Y1672323D02*
X38535951Y1481847D01*
X38535951Y1481847D02*
X38535951Y1148514D01*
X38535951Y1148514D02*
X38488332Y958038D01*
X38488332Y958038D02*
X38393094Y862800D01*
X38393094Y862800D02*
X38297856Y815180D01*
X38297856Y815180D02*
X38107380Y815180D01*
X38107380Y815180D02*
X38012142Y862800D01*
X38012142Y862800D02*
X37916904Y958038D01*
X37916904Y958038D02*
X37869285Y1148514D01*
X37869285Y1148514D02*
X37869285Y1481847D01*
X37869285Y1481847D02*
X37916904Y1672323D01*
X37916904Y1672323D02*
X38012142Y1767561D01*
X38012142Y1767561D02*
X38107380Y1815180D01*
X38964523Y1815180D02*
X38964523Y1005657D01*
X38964523Y1005657D02*
X39012142Y910419D01*
X39012142Y910419D02*
X39059761Y862800D01*
X39059761Y862800D02*
X39154999Y815180D01*
X39154999Y815180D02*
X39345475Y815180D01*
X39345475Y815180D02*
X39440713Y862800D01*
X39440713Y862800D02*
X39488332Y910419D01*
X39488332Y910419D02*
X39535951Y1005657D01*
X39535951Y1005657D02*
X39535951Y1815180D01*
X39869285Y1815180D02*
X40440713Y1815180D01*
X40154999Y815180D02*
X40154999Y1815180D01*
X41297856Y815180D02*
X40726428Y815180D01*
X41012142Y815180D02*
X41012142Y1815180D01*
X41012142Y1815180D02*
X40916904Y1672323D01*
X40916904Y1672323D02*
X40821666Y1577085D01*
X40821666Y1577085D02*
X40726428Y1529466D01*
X72399762Y815180D02*
X72399762Y1815180D01*
X72399762Y1815180D02*
X72733095Y1100895D01*
X72733095Y1100895D02*
X73066428Y1815180D01*
X73066428Y1815180D02*
X73066428Y815180D01*
X73542619Y815180D02*
X73542619Y1815180D01*
X74018809Y815180D02*
X74018809Y1815180D01*
X74018809Y1815180D02*
X74256904Y1815180D01*
X74256904Y1815180D02*
X74399761Y1767561D01*
X74399761Y1767561D02*
X74494999Y1672323D01*
X74494999Y1672323D02*
X74542618Y1577085D01*
X74542618Y1577085D02*
X74590237Y1386609D01*
X74590237Y1386609D02*
X74590237Y1243752D01*
X74590237Y1243752D02*
X74542618Y1053276D01*
X74542618Y1053276D02*
X74494999Y958038D01*
X74494999Y958038D02*
X74399761Y862800D01*
X74399761Y862800D02*
X74256904Y815180D01*
X74256904Y815180D02*
X74018809Y815180D01*
X75018809Y815180D02*
X75018809Y1815180D01*
X75256904Y719942D02*
X76018808Y719942D01*
X76447380Y1815180D02*
X76637856Y1815180D01*
X76637856Y1815180D02*
X76733094Y1767561D01*
X76733094Y1767561D02*
X76828332Y1672323D01*
X76828332Y1672323D02*
X76875951Y1481847D01*
X76875951Y1481847D02*
X76875951Y1148514D01*
X76875951Y1148514D02*
X76828332Y958038D01*
X76828332Y958038D02*
X76733094Y862800D01*
X76733094Y862800D02*
X76637856Y815180D01*
X76637856Y815180D02*
X76447380Y815180D01*
X76447380Y815180D02*
X76352142Y862800D01*
X76352142Y862800D02*
X76256904Y958038D01*
X76256904Y958038D02*
X76209285Y1148514D01*
X76209285Y1148514D02*
X76209285Y1481847D01*
X76209285Y1481847D02*
X76256904Y1672323D01*
X76256904Y1672323D02*
X76352142Y1767561D01*
X76352142Y1767561D02*
X76447380Y1815180D01*
X77304523Y1815180D02*
X77304523Y1005657D01*
X77304523Y1005657D02*
X77352142Y910419D01*
X77352142Y910419D02*
X77399761Y862800D01*
X77399761Y862800D02*
X77494999Y815180D01*
X77494999Y815180D02*
X77685475Y815180D01*
X77685475Y815180D02*
X77780713Y862800D01*
X77780713Y862800D02*
X77828332Y910419D01*
X77828332Y910419D02*
X77875951Y1005657D01*
X77875951Y1005657D02*
X77875951Y1815180D01*
X78209285Y1815180D02*
X78780713Y1815180D01*
X78494999Y815180D02*
X78494999Y1815180D01*
X79590237Y1815180D02*
X79114047Y1815180D01*
X79114047Y1815180D02*
X79066428Y1338990D01*
X79066428Y1338990D02*
X79114047Y1386609D01*
X79114047Y1386609D02*
X79209285Y1434228D01*
X79209285Y1434228D02*
X79447380Y1434228D01*
X79447380Y1434228D02*
X79542618Y1386609D01*
X79542618Y1386609D02*
X79590237Y1338990D01*
X79590237Y1338990D02*
X79637856Y1243752D01*
X79637856Y1243752D02*
X79637856Y1005657D01*
X79637856Y1005657D02*
X79590237Y910419D01*
X79590237Y910419D02*
X79542618Y862800D01*
X79542618Y862800D02*
X79447380Y815180D01*
X79447380Y815180D02*
X79209285Y815180D01*
X79209285Y815180D02*
X79114047Y862800D01*
X79114047Y862800D02*
X79066428Y910419D01*
X40753333Y-35454819D02*
X40420000Y-34978628D01*
X40181905Y-35454819D02*
X40181905Y-34454819D01*
X40181905Y-34454819D02*
X40562857Y-34454819D01*
X40562857Y-34454819D02*
X40658095Y-34502438D01*
X40658095Y-34502438D02*
X40705714Y-34550057D01*
X40705714Y-34550057D02*
X40753333Y-34645295D01*
X40753333Y-34645295D02*
X40753333Y-34788152D01*
X40753333Y-34788152D02*
X40705714Y-34883390D01*
X40705714Y-34883390D02*
X40658095Y-34931009D01*
X40658095Y-34931009D02*
X40562857Y-34978628D01*
X40562857Y-34978628D02*
X40181905Y-34978628D01*
X41134286Y-34550057D02*
X41181905Y-34502438D01*
X41181905Y-34502438D02*
X41277143Y-34454819D01*
X41277143Y-34454819D02*
X41515238Y-34454819D01*
X41515238Y-34454819D02*
X41610476Y-34502438D01*
X41610476Y-34502438D02*
X41658095Y-34550057D01*
X41658095Y-34550057D02*
X41705714Y-34645295D01*
X41705714Y-34645295D02*
X41705714Y-34740533D01*
X41705714Y-34740533D02*
X41658095Y-34883390D01*
X41658095Y-34883390D02*
X41086667Y-35454819D01*
X41086667Y-35454819D02*
X41705714Y-35454819D01*
X72850142Y-26642857D02*
X72373951Y-26976190D01*
X72850142Y-27214285D02*
X71850142Y-27214285D01*
X71850142Y-27214285D02*
X71850142Y-26833333D01*
X71850142Y-26833333D02*
X71897761Y-26738095D01*
X71897761Y-26738095D02*
X71945380Y-26690476D01*
X71945380Y-26690476D02*
X72040618Y-26642857D01*
X72040618Y-26642857D02*
X72183475Y-26642857D01*
X72183475Y-26642857D02*
X72278713Y-26690476D01*
X72278713Y-26690476D02*
X72326332Y-26738095D01*
X72326332Y-26738095D02*
X72373951Y-26833333D01*
X72373951Y-26833333D02*
X72373951Y-27214285D01*
X72850142Y-25690476D02*
X72850142Y-26261904D01*
X72850142Y-25976190D02*
X71850142Y-25976190D01*
X71850142Y-25976190D02*
X71992999Y-26071428D01*
X71992999Y-26071428D02*
X72088237Y-26166666D01*
X72088237Y-26166666D02*
X72135856Y-26261904D01*
X71945380Y-25309523D02*
X71897761Y-25261904D01*
X71897761Y-25261904D02*
X71850142Y-25166666D01*
X71850142Y-25166666D02*
X71850142Y-24928571D01*
X71850142Y-24928571D02*
X71897761Y-24833333D01*
X71897761Y-24833333D02*
X71945380Y-24785714D01*
X71945380Y-24785714D02*
X72040618Y-24738095D01*
X72040618Y-24738095D02*
X72135856Y-24738095D01*
X72135856Y-24738095D02*
X72278713Y-24785714D01*
X72278713Y-24785714D02*
X72850142Y-25357142D01*
X72850142Y-25357142D02*
X72850142Y-24738095D01*
X65808272Y-26166666D02*
X65332081Y-26499999D01*
X65808272Y-26738094D02*
X64808272Y-26738094D01*
X64808272Y-26738094D02*
X64808272Y-26357142D01*
X64808272Y-26357142D02*
X64855891Y-26261904D01*
X64855891Y-26261904D02*
X64903510Y-26214285D01*
X64903510Y-26214285D02*
X64998748Y-26166666D01*
X64998748Y-26166666D02*
X65141605Y-26166666D01*
X65141605Y-26166666D02*
X65236843Y-26214285D01*
X65236843Y-26214285D02*
X65284462Y-26261904D01*
X65284462Y-26261904D02*
X65332081Y-26357142D01*
X65332081Y-26357142D02*
X65332081Y-26738094D01*
X65236843Y-25595237D02*
X65189224Y-25690475D01*
X65189224Y-25690475D02*
X65141605Y-25738094D01*
X65141605Y-25738094D02*
X65046367Y-25785713D01*
X65046367Y-25785713D02*
X64998748Y-25785713D01*
X64998748Y-25785713D02*
X64903510Y-25738094D01*
X64903510Y-25738094D02*
X64855891Y-25690475D01*
X64855891Y-25690475D02*
X64808272Y-25595237D01*
X64808272Y-25595237D02*
X64808272Y-25404761D01*
X64808272Y-25404761D02*
X64855891Y-25309523D01*
X64855891Y-25309523D02*
X64903510Y-25261904D01*
X64903510Y-25261904D02*
X64998748Y-25214285D01*
X64998748Y-25214285D02*
X65046367Y-25214285D01*
X65046367Y-25214285D02*
X65141605Y-25261904D01*
X65141605Y-25261904D02*
X65189224Y-25309523D01*
X65189224Y-25309523D02*
X65236843Y-25404761D01*
X65236843Y-25404761D02*
X65236843Y-25595237D01*
X65236843Y-25595237D02*
X65284462Y-25690475D01*
X65284462Y-25690475D02*
X65332081Y-25738094D01*
X65332081Y-25738094D02*
X65427319Y-25785713D01*
X65427319Y-25785713D02*
X65617795Y-25785713D01*
X65617795Y-25785713D02*
X65713033Y-25738094D01*
X65713033Y-25738094D02*
X65760653Y-25690475D01*
X65760653Y-25690475D02*
X65808272Y-25595237D01*
X65808272Y-25595237D02*
X65808272Y-25404761D01*
X65808272Y-25404761D02*
X65760653Y-25309523D01*
X65760653Y-25309523D02*
X65713033Y-25261904D01*
X65713033Y-25261904D02*
X65617795Y-25214285D01*
X65617795Y-25214285D02*
X65427319Y-25214285D01*
X65427319Y-25214285D02*
X65332081Y-25261904D01*
X65332081Y-25261904D02*
X65284462Y-25309523D01*
X65284462Y-25309523D02*
X65236843Y-25404761D01*
X43644762Y815180D02*
X43644762Y1815180D01*
X43644762Y1815180D02*
X43978095Y1100895D01*
X43978095Y1100895D02*
X44311428Y1815180D01*
X44311428Y1815180D02*
X44311428Y815180D01*
X44787619Y815180D02*
X44787619Y1815180D01*
X45263809Y815180D02*
X45263809Y1815180D01*
X45263809Y1815180D02*
X45501904Y1815180D01*
X45501904Y1815180D02*
X45644761Y1767561D01*
X45644761Y1767561D02*
X45739999Y1672323D01*
X45739999Y1672323D02*
X45787618Y1577085D01*
X45787618Y1577085D02*
X45835237Y1386609D01*
X45835237Y1386609D02*
X45835237Y1243752D01*
X45835237Y1243752D02*
X45787618Y1053276D01*
X45787618Y1053276D02*
X45739999Y958038D01*
X45739999Y958038D02*
X45644761Y862800D01*
X45644761Y862800D02*
X45501904Y815180D01*
X45501904Y815180D02*
X45263809Y815180D01*
X46263809Y815180D02*
X46263809Y1815180D01*
X46501904Y719942D02*
X47263808Y719942D01*
X47692380Y1815180D02*
X47882856Y1815180D01*
X47882856Y1815180D02*
X47978094Y1767561D01*
X47978094Y1767561D02*
X48073332Y1672323D01*
X48073332Y1672323D02*
X48120951Y1481847D01*
X48120951Y1481847D02*
X48120951Y1148514D01*
X48120951Y1148514D02*
X48073332Y958038D01*
X48073332Y958038D02*
X47978094Y862800D01*
X47978094Y862800D02*
X47882856Y815180D01*
X47882856Y815180D02*
X47692380Y815180D01*
X47692380Y815180D02*
X47597142Y862800D01*
X47597142Y862800D02*
X47501904Y958038D01*
X47501904Y958038D02*
X47454285Y1148514D01*
X47454285Y1148514D02*
X47454285Y1481847D01*
X47454285Y1481847D02*
X47501904Y1672323D01*
X47501904Y1672323D02*
X47597142Y1767561D01*
X47597142Y1767561D02*
X47692380Y1815180D01*
X48549523Y1815180D02*
X48549523Y1005657D01*
X48549523Y1005657D02*
X48597142Y910419D01*
X48597142Y910419D02*
X48644761Y862800D01*
X48644761Y862800D02*
X48739999Y815180D01*
X48739999Y815180D02*
X48930475Y815180D01*
X48930475Y815180D02*
X49025713Y862800D01*
X49025713Y862800D02*
X49073332Y910419D01*
X49073332Y910419D02*
X49120951Y1005657D01*
X49120951Y1005657D02*
X49120951Y1815180D01*
X49454285Y1815180D02*
X50025713Y1815180D01*
X49739999Y815180D02*
X49739999Y1815180D01*
X50311428Y1719942D02*
X50359047Y1767561D01*
X50359047Y1767561D02*
X50454285Y1815180D01*
X50454285Y1815180D02*
X50692380Y1815180D01*
X50692380Y1815180D02*
X50787618Y1767561D01*
X50787618Y1767561D02*
X50835237Y1719942D01*
X50835237Y1719942D02*
X50882856Y1624704D01*
X50882856Y1624704D02*
X50882856Y1529466D01*
X50882856Y1529466D02*
X50835237Y1386609D01*
X50835237Y1386609D02*
X50263809Y815180D01*
X50263809Y815180D02*
X50882856Y815180D01*
X30071905Y-59954819D02*
X30071905Y-58954819D01*
X30071905Y-58954819D02*
X30310000Y-58954819D01*
X30310000Y-58954819D02*
X30452857Y-59002438D01*
X30452857Y-59002438D02*
X30548095Y-59097676D01*
X30548095Y-59097676D02*
X30595714Y-59192914D01*
X30595714Y-59192914D02*
X30643333Y-59383390D01*
X30643333Y-59383390D02*
X30643333Y-59526247D01*
X30643333Y-59526247D02*
X30595714Y-59716723D01*
X30595714Y-59716723D02*
X30548095Y-59811961D01*
X30548095Y-59811961D02*
X30452857Y-59907200D01*
X30452857Y-59907200D02*
X30310000Y-59954819D01*
X30310000Y-59954819D02*
X30071905Y-59954819D01*
X31595714Y-59954819D02*
X31024286Y-59954819D01*
X31310000Y-59954819D02*
X31310000Y-58954819D01*
X31310000Y-58954819D02*
X31214762Y-59097676D01*
X31214762Y-59097676D02*
X31119524Y-59192914D01*
X31119524Y-59192914D02*
X31024286Y-59240533D01*
X34333333Y-76954819D02*
X34000000Y-76478628D01*
X33761905Y-76954819D02*
X33761905Y-75954819D01*
X33761905Y-75954819D02*
X34142857Y-75954819D01*
X34142857Y-75954819D02*
X34238095Y-76002438D01*
X34238095Y-76002438D02*
X34285714Y-76050057D01*
X34285714Y-76050057D02*
X34333333Y-76145295D01*
X34333333Y-76145295D02*
X34333333Y-76288152D01*
X34333333Y-76288152D02*
X34285714Y-76383390D01*
X34285714Y-76383390D02*
X34238095Y-76431009D01*
X34238095Y-76431009D02*
X34142857Y-76478628D01*
X34142857Y-76478628D02*
X33761905Y-76478628D01*
X35285714Y-76954819D02*
X34714286Y-76954819D01*
X35000000Y-76954819D02*
X35000000Y-75954819D01*
X35000000Y-75954819D02*
X34904762Y-76097676D01*
X34904762Y-76097676D02*
X34809524Y-76192914D01*
X34809524Y-76192914D02*
X34714286Y-76240533D01*
X58766401Y-26166666D02*
X58290210Y-26499999D01*
X58766401Y-26738094D02*
X57766401Y-26738094D01*
X57766401Y-26738094D02*
X57766401Y-26357142D01*
X57766401Y-26357142D02*
X57814020Y-26261904D01*
X57814020Y-26261904D02*
X57861639Y-26214285D01*
X57861639Y-26214285D02*
X57956877Y-26166666D01*
X57956877Y-26166666D02*
X58099734Y-26166666D01*
X58099734Y-26166666D02*
X58194972Y-26214285D01*
X58194972Y-26214285D02*
X58242591Y-26261904D01*
X58242591Y-26261904D02*
X58290210Y-26357142D01*
X58290210Y-26357142D02*
X58290210Y-26738094D01*
X57766401Y-25261904D02*
X57766401Y-25738094D01*
X57766401Y-25738094D02*
X58242591Y-25785713D01*
X58242591Y-25785713D02*
X58194972Y-25738094D01*
X58194972Y-25738094D02*
X58147353Y-25642856D01*
X58147353Y-25642856D02*
X58147353Y-25404761D01*
X58147353Y-25404761D02*
X58194972Y-25309523D01*
X58194972Y-25309523D02*
X58242591Y-25261904D01*
X58242591Y-25261904D02*
X58337829Y-25214285D01*
X58337829Y-25214285D02*
X58575924Y-25214285D01*
X58575924Y-25214285D02*
X58671162Y-25261904D01*
X58671162Y-25261904D02*
X58718782Y-25309523D01*
X58718782Y-25309523D02*
X58766401Y-25404761D01*
X58766401Y-25404761D02*
X58766401Y-25642856D01*
X58766401Y-25642856D02*
X58718782Y-25738094D01*
X58718782Y-25738094D02*
X58671162Y-25785713D01*
X73466667Y-47707200D02*
X73609524Y-47754819D01*
X73609524Y-47754819D02*
X73847619Y-47754819D01*
X73847619Y-47754819D02*
X73942857Y-47707200D01*
X73942857Y-47707200D02*
X73990476Y-47659580D01*
X73990476Y-47659580D02*
X74038095Y-47564342D01*
X74038095Y-47564342D02*
X74038095Y-47469104D01*
X74038095Y-47469104D02*
X73990476Y-47373866D01*
X73990476Y-47373866D02*
X73942857Y-47326247D01*
X73942857Y-47326247D02*
X73847619Y-47278628D01*
X73847619Y-47278628D02*
X73657143Y-47231009D01*
X73657143Y-47231009D02*
X73561905Y-47183390D01*
X73561905Y-47183390D02*
X73514286Y-47135771D01*
X73514286Y-47135771D02*
X73466667Y-47040533D01*
X73466667Y-47040533D02*
X73466667Y-46945295D01*
X73466667Y-46945295D02*
X73514286Y-46850057D01*
X73514286Y-46850057D02*
X73561905Y-46802438D01*
X73561905Y-46802438D02*
X73657143Y-46754819D01*
X73657143Y-46754819D02*
X73895238Y-46754819D01*
X73895238Y-46754819D02*
X74038095Y-46802438D01*
X74371429Y-46754819D02*
X74609524Y-47754819D01*
X74609524Y-47754819D02*
X74800000Y-47040533D01*
X74800000Y-47040533D02*
X74990476Y-47754819D01*
X74990476Y-47754819D02*
X75228572Y-46754819D01*
X76133333Y-47754819D02*
X75561905Y-47754819D01*
X75847619Y-47754819D02*
X75847619Y-46754819D01*
X75847619Y-46754819D02*
X75752381Y-46897676D01*
X75752381Y-46897676D02*
X75657143Y-46992914D01*
X75657143Y-46992914D02*
X75561905Y-47040533D01*
D11*
%TO.C,U3*%
X32360000Y-22770000D02*
X32360000Y-29240000D01*
X32360000Y-29240000D02*
X42640000Y-29240000D01*
X42640000Y-22770000D02*
X32360000Y-22770000D01*
X42640000Y-25005000D02*
X42640000Y-22770000D01*
X42640000Y-29240000D02*
X42640000Y-27005000D01*
X42640000Y-27005000D02*
G75*
G02*
X42640000Y-25005000I0J1000000D01*
G01*
%TO.C,OLED1*%
X5741914Y-9685570D02*
X33141914Y-9685570D01*
X5741914Y-36985570D02*
X5741914Y-9685570D01*
X6163914Y-12980570D02*
X29263914Y-12980570D01*
X6163914Y-29580570D02*
X6163914Y-12980570D01*
X14442914Y-10174570D02*
X14442914Y-12587570D01*
X14442914Y-10174570D02*
X24221914Y-10174570D01*
X24221914Y-10174570D02*
X24221914Y-12587570D01*
X24221914Y-12587570D02*
X14442914Y-12587570D01*
X29263914Y-12980570D02*
X32349914Y-12980570D01*
X29263914Y-29580570D02*
X6163914Y-29580570D01*
X29263914Y-29580570D02*
X32603914Y-29605570D01*
X32603914Y-12968570D02*
X32349914Y-12980570D01*
X32603914Y-29605570D02*
X32603914Y-12968570D01*
X33141914Y-9685570D02*
X33141914Y-36985570D01*
X33141914Y-36985570D02*
X5741914Y-36985570D01*
%TO.C,R7*%
X61832518Y-21960000D02*
X61832518Y-22730000D01*
X61832518Y-30040000D02*
X61832518Y-29270000D01*
X60462518Y-29270000D02*
X63202518Y-29270000D01*
X63202518Y-22730000D01*
X60462518Y-22730000D01*
X60462518Y-29270000D01*
%TO.C,R14*%
X93520935Y-21960000D02*
X93520935Y-22730000D01*
X93520935Y-30040000D02*
X93520935Y-29270000D01*
X92150935Y-29270000D02*
X94890935Y-29270000D01*
X94890935Y-22730000D01*
X92150935Y-22730000D01*
X92150935Y-29270000D01*
%TO.C,MIDI_OUT3*%
X52585000Y-12200000D02*
X52585000Y-13200000D01*
X52585000Y-13200000D02*
X53085000Y-12700000D01*
X53085000Y-12700000D02*
X52585000Y-12200000D01*
X53385000Y-3400000D02*
X53385000Y-14800000D01*
X53385000Y-3400000D02*
X53685000Y-3400000D01*
X53385000Y-14800000D02*
X57985000Y-14800000D01*
X53685000Y-3400000D02*
X53685000Y-600000D01*
X59485000Y-600000D02*
X53685000Y-600000D01*
X59485000Y-3400000D02*
X59485000Y-600000D01*
X59485000Y-3400000D02*
X60685000Y-3400000D01*
X60685000Y-3400000D02*
X60685000Y-14800000D01*
X60685000Y-14800000D02*
X59585000Y-14800000D01*
%TO.C,R11*%
X68874388Y-21960000D02*
X68874388Y-22730000D01*
X68874388Y-30040000D02*
X68874388Y-29270000D01*
X67504388Y-29270000D02*
X70244388Y-29270000D01*
X70244388Y-22730000D01*
X67504388Y-22730000D01*
X67504388Y-29270000D01*
%TO.C,MIDI_OUT6*%
X81340000Y-12200000D02*
X81340000Y-13200000D01*
X81340000Y-13200000D02*
X81840000Y-12700000D01*
X81840000Y-12700000D02*
X81340000Y-12200000D01*
X82140000Y-3400000D02*
X82140000Y-14800000D01*
X82140000Y-3400000D02*
X82440000Y-3400000D01*
X82140000Y-14800000D02*
X86740000Y-14800000D01*
X82440000Y-3400000D02*
X82440000Y-600000D01*
X88240000Y-600000D02*
X82440000Y-600000D01*
X88240000Y-3400000D02*
X88240000Y-600000D01*
X88240000Y-3400000D02*
X89440000Y-3400000D01*
X89440000Y-3400000D02*
X89440000Y-14800000D01*
X89440000Y-14800000D02*
X88340000Y-14800000D01*
%TO.C,R15*%
X82958129Y-21960000D02*
X82958129Y-22730000D01*
X82958129Y-30040000D02*
X82958129Y-29270000D01*
X81588129Y-29270000D02*
X84328129Y-29270000D01*
X84328129Y-22730000D01*
X81588129Y-22730000D01*
X81588129Y-29270000D01*
%TO.C,R9*%
X75916259Y-21960000D02*
X75916259Y-22730000D01*
X75916259Y-30040000D02*
X75916259Y-29270000D01*
X74546259Y-29270000D02*
X77286259Y-29270000D01*
X77286259Y-22730000D01*
X74546259Y-22730000D01*
X74546259Y-29270000D01*
D10*
%TO.C,TEENSY1*%
X-140000Y-43310000D02*
X1130000Y-43310000D01*
X-140000Y-50930000D02*
X-140000Y-43310000D01*
X1130000Y-38230000D02*
X62090000Y-38230000D01*
X1130000Y-50930000D02*
X-140000Y-50930000D01*
X1130000Y-56010000D02*
X1130000Y-38230000D01*
X6210000Y-43310000D02*
X1130000Y-43310000D01*
X6210000Y-50930000D02*
X1130000Y-50930000D01*
X6210000Y-50930000D02*
X6210000Y-43310000D01*
X7429200Y-50419200D02*
X9969200Y-50419200D01*
X7429200Y-50419200D02*
X20129200Y-50419200D01*
X7429200Y-52959200D02*
X7429200Y-50419200D01*
X9969200Y-50419200D02*
X9969200Y-52959200D01*
X14360000Y-40768400D02*
X14360000Y-41018400D01*
X14360000Y-41018400D02*
X14360000Y-47018400D01*
X14360000Y-47018400D02*
X18360000Y-47018400D01*
X18360000Y-40768400D02*
X14360000Y-40768400D01*
X18360000Y-47018400D02*
X18360000Y-40768400D01*
X20129200Y-50419200D02*
X20129200Y-52959200D01*
X20129200Y-52959200D02*
X7429200Y-52959200D01*
X23990000Y-40770000D02*
X23990000Y-53470000D01*
X23990000Y-53470000D02*
X36690000Y-53470000D01*
X36690000Y-40770000D02*
X23990000Y-40770000D01*
X36690000Y-53470000D02*
X36690000Y-40770000D01*
X41770000Y-45850000D02*
X45580000Y-45850000D01*
X41770000Y-48390000D02*
X41770000Y-45850000D01*
X45580000Y-45850000D02*
X45580000Y-48390000D01*
X45580000Y-48390000D02*
X41770000Y-48390000D01*
X49390000Y-40770000D02*
X49390000Y-53470000D01*
X49390000Y-53470000D02*
X62090000Y-53470000D01*
X60820000Y-42040000D02*
X60820000Y-52200000D01*
X60820000Y-52200000D02*
X62090000Y-52200000D01*
X62090000Y-38230000D02*
X62090000Y-56010000D01*
X62090000Y-40770000D02*
X49390000Y-40770000D01*
X62090000Y-42040000D02*
X60820000Y-42040000D01*
X62090000Y-56010000D02*
X1130000Y-56010000D01*
X44573026Y-47120000D02*
G75*
G02*
X42776974Y-47120000I-898026J0D01*
G01*
X42776974Y-47120000D02*
G75*
G02*
X44573026Y-47120000I898026J0D01*
G01*
D12*
X32521000Y-46432000D02*
X32267000Y-46686000D01*
X32013000Y-46305000D01*
X32267000Y-46051000D01*
X32521000Y-46432000D01*
G36*
X32521000Y-46432000D02*
G01*
X32267000Y-46686000D01*
X32013000Y-46305000D01*
X32267000Y-46051000D01*
X32521000Y-46432000D01*
G37*
X32902000Y-46940000D02*
X32648000Y-47194000D01*
X32394000Y-46813000D01*
X32648000Y-46559000D01*
X32902000Y-46940000D01*
G36*
X32902000Y-46940000D02*
G01*
X32648000Y-47194000D01*
X32394000Y-46813000D01*
X32648000Y-46559000D01*
X32902000Y-46940000D01*
G37*
X33283000Y-46559000D02*
X33029000Y-46813000D01*
X32775000Y-46432000D01*
X33029000Y-46178000D01*
X33283000Y-46559000D01*
G36*
X33283000Y-46559000D02*
G01*
X33029000Y-46813000D01*
X32775000Y-46432000D01*
X33029000Y-46178000D01*
X33283000Y-46559000D01*
G37*
X33283000Y-47448000D02*
X33029000Y-47702000D01*
X32775000Y-47321000D01*
X33029000Y-47067000D01*
X33283000Y-47448000D01*
G36*
X33283000Y-47448000D02*
G01*
X33029000Y-47702000D01*
X32775000Y-47321000D01*
X33029000Y-47067000D01*
X33283000Y-47448000D01*
G37*
X33664000Y-47067000D02*
X33410000Y-47321000D01*
X33156000Y-46940000D01*
X33410000Y-46686000D01*
X33664000Y-47067000D01*
G36*
X33664000Y-47067000D02*
G01*
X33410000Y-47321000D01*
X33156000Y-46940000D01*
X33410000Y-46686000D01*
X33664000Y-47067000D01*
G37*
X34045000Y-47575000D02*
X33791000Y-47829000D01*
X33537000Y-47448000D01*
X33791000Y-47194000D01*
X34045000Y-47575000D01*
G36*
X34045000Y-47575000D02*
G01*
X33791000Y-47829000D01*
X33537000Y-47448000D01*
X33791000Y-47194000D01*
X34045000Y-47575000D01*
G37*
X34426000Y-47194000D02*
X34172000Y-47448000D01*
X33918000Y-47067000D01*
X34172000Y-46813000D01*
X34426000Y-47194000D01*
G36*
X34426000Y-47194000D02*
G01*
X34172000Y-47448000D01*
X33918000Y-47067000D01*
X34172000Y-46813000D01*
X34426000Y-47194000D01*
G37*
X34807000Y-46813000D02*
X34553000Y-47067000D01*
X34299000Y-46686000D01*
X34553000Y-46432000D01*
X34807000Y-46813000D01*
G36*
X34807000Y-46813000D02*
G01*
X34553000Y-47067000D01*
X34299000Y-46686000D01*
X34553000Y-46432000D01*
X34807000Y-46813000D01*
G37*
D11*
%TO.C,MIDI_IN1*%
X150000Y-24832500D02*
X150000Y-30632500D01*
X2950000Y-23632500D02*
X14350000Y-23632500D01*
X2950000Y-24832500D02*
X150000Y-24832500D01*
X2950000Y-24832500D02*
X2950000Y-23632500D01*
X2950000Y-30632500D02*
X150000Y-30632500D01*
X2950000Y-30932500D02*
X2950000Y-30632500D01*
X2950000Y-30932500D02*
X14350000Y-30932500D01*
X11750000Y-31732500D02*
X12750000Y-31732500D01*
X12250000Y-31232500D02*
X11750000Y-31732500D01*
X12750000Y-31732500D02*
X12250000Y-31232500D01*
X14350000Y-23632500D02*
X14350000Y-24732500D01*
X14350000Y-30932500D02*
X14350000Y-26332500D01*
%TO.C,R16*%
X86479064Y-21960000D02*
X86479064Y-22730000D01*
X86479064Y-30040000D02*
X86479064Y-29270000D01*
X85109064Y-29270000D02*
X87849064Y-29270000D01*
X87849064Y-22730000D01*
X85109064Y-22730000D01*
X85109064Y-29270000D01*
%TO.C,R4*%
X30000000Y-20960000D02*
X30000000Y-21730000D01*
X30000000Y-29040000D02*
X30000000Y-28270000D01*
X28630000Y-28270000D02*
X31370000Y-28270000D01*
X31370000Y-21730000D01*
X28630000Y-21730000D01*
X28630000Y-28270000D01*
%TO.C,C1*%
X38130000Y-65630000D02*
X40870000Y-65630000D01*
X38130000Y-70870000D02*
X38130000Y-65630000D01*
X40870000Y-65630000D02*
X40870000Y-70870000D01*
X40870000Y-70870000D02*
X38130000Y-70870000D01*
%TO.C,R3*%
X23500000Y-62960000D02*
X23500000Y-63730000D01*
X23500000Y-71040000D02*
X23500000Y-70270000D01*
X22130000Y-70270000D02*
X24870000Y-70270000D01*
X24870000Y-63730000D01*
X22130000Y-63730000D01*
X22130000Y-70270000D01*
%TO.C,D2*%
X34730000Y-17500000D02*
X35380000Y-17500000D01*
X38780000Y-18620000D02*
X38780000Y-16380000D01*
X38900000Y-18620000D02*
X38900000Y-16380000D01*
X39020000Y-18620000D02*
X39020000Y-16380000D01*
X40270000Y-17500000D02*
X39620000Y-17500000D01*
X39620000Y-18620000D02*
X35380000Y-18620000D01*
X35380000Y-16380000D01*
X39620000Y-16380000D01*
X39620000Y-18620000D01*
%TO.C,MIDI_IN2*%
X150000Y-16332500D02*
X150000Y-22132500D01*
X2950000Y-15132500D02*
X14350000Y-15132500D01*
X2950000Y-16332500D02*
X150000Y-16332500D01*
X2950000Y-16332500D02*
X2950000Y-15132500D01*
X2950000Y-22132500D02*
X150000Y-22132500D01*
X2950000Y-22432500D02*
X2950000Y-22132500D01*
X2950000Y-22432500D02*
X14350000Y-22432500D01*
X11750000Y-23232500D02*
X12750000Y-23232500D01*
X12250000Y-22732500D02*
X11750000Y-23232500D01*
X12750000Y-23232500D02*
X12250000Y-22732500D01*
X14350000Y-15132500D02*
X14350000Y-16232500D01*
X14350000Y-22432500D02*
X14350000Y-17832500D01*
%TO.C,R6*%
X54790647Y-21960000D02*
X54790647Y-22730000D01*
X54790647Y-30040000D02*
X54790647Y-29270000D01*
X53420647Y-29270000D02*
X56160647Y-29270000D01*
X56160647Y-22730000D01*
X53420647Y-22730000D01*
X53420647Y-29270000D01*
%TO.C,R10*%
X79437194Y-21960000D02*
X79437194Y-22730000D01*
X79437194Y-30040000D02*
X79437194Y-29270000D01*
X78067194Y-29270000D02*
X80807194Y-29270000D01*
X80807194Y-22730000D01*
X78067194Y-22730000D01*
X78067194Y-29270000D01*
%TO.C,U2*%
X25860000Y-64770000D02*
X25860000Y-71240000D01*
X25860000Y-71240000D02*
X36140000Y-71240000D01*
X36140000Y-64770000D02*
X25860000Y-64770000D01*
X36140000Y-67005000D02*
X36140000Y-64770000D01*
X36140000Y-71240000D02*
X36140000Y-69005000D01*
X36140000Y-69005000D02*
G75*
G02*
X36140000Y-67005000I0J1000000D01*
G01*
%TO.C,G1*%
X53380000Y-67100000D02*
X53380000Y-64900000D01*
X54000000Y-62880000D02*
X59000000Y-62880000D01*
X54000000Y-69120000D02*
X59000000Y-69120000D01*
X59620000Y-64900000D02*
X59620000Y-67100000D01*
X58250000Y-66000000D02*
G75*
G02*
X54750000Y-66000000I-1750000J0D01*
G01*
X54750000Y-66000000D02*
G75*
G02*
X58250000Y-66000000I1750000J0D01*
G01*
%TO.C,USB1*%
X490152Y-57245861D02*
X490152Y-71745861D01*
X490152Y-71745861D02*
X990152Y-71745861D01*
X990152Y-57245861D02*
X490152Y-57245861D01*
X990152Y-58245861D02*
X990152Y-57245861D01*
X990152Y-70745861D02*
X8990152Y-70745861D01*
X990152Y-71745861D02*
X990152Y-70745861D01*
X8990152Y-58245861D02*
X990152Y-58245861D01*
X12490152Y-70745861D02*
X14490152Y-70745861D01*
X14490152Y-58245861D02*
X12490152Y-58245861D01*
X14490152Y-70745861D02*
X14490152Y-58245861D01*
X14740152Y-60495861D02*
X14740152Y-61495861D01*
%TO.C,MIDI_OUT4*%
X62170000Y-12200000D02*
X62170000Y-13200000D01*
X62170000Y-13200000D02*
X62670000Y-12700000D01*
X62670000Y-12700000D02*
X62170000Y-12200000D01*
X62970000Y-3400000D02*
X62970000Y-14800000D01*
X62970000Y-3400000D02*
X63270000Y-3400000D01*
X62970000Y-14800000D02*
X67570000Y-14800000D01*
X63270000Y-3400000D02*
X63270000Y-600000D01*
X69070000Y-600000D02*
X63270000Y-600000D01*
X69070000Y-3400000D02*
X69070000Y-600000D01*
X69070000Y-3400000D02*
X70270000Y-3400000D01*
X70270000Y-3400000D02*
X70270000Y-14800000D01*
X70270000Y-14800000D02*
X69170000Y-14800000D01*
%TO.C,R13*%
X90000000Y-21960000D02*
X90000000Y-22730000D01*
X90000000Y-30040000D02*
X90000000Y-29270000D01*
X88630000Y-29270000D02*
X91370000Y-29270000D01*
X91370000Y-22730000D01*
X88630000Y-22730000D01*
X88630000Y-29270000D01*
%TO.C,C2*%
X44130000Y-23630000D02*
X46870000Y-23630000D01*
X44130000Y-28870000D02*
X44130000Y-23630000D01*
X46870000Y-23630000D02*
X46870000Y-28870000D01*
X46870000Y-28870000D02*
X44130000Y-28870000D01*
%TO.C,MIDI_OUT1*%
X33415000Y-12200000D02*
X33415000Y-13200000D01*
X33415000Y-13200000D02*
X33915000Y-12700000D01*
X33915000Y-12700000D02*
X33415000Y-12200000D01*
X34215000Y-3400000D02*
X34215000Y-14800000D01*
X34215000Y-3400000D02*
X34515000Y-3400000D01*
X34215000Y-14800000D02*
X38815000Y-14800000D01*
X34515000Y-3400000D02*
X34515000Y-600000D01*
X40315000Y-600000D02*
X34515000Y-600000D01*
X40315000Y-3400000D02*
X40315000Y-600000D01*
X40315000Y-3400000D02*
X41515000Y-3400000D01*
X41515000Y-3400000D02*
X41515000Y-14800000D01*
X41515000Y-14800000D02*
X40415000Y-14800000D01*
%TO.C,MIDI_OUT5*%
X71755000Y-12200000D02*
X71755000Y-13200000D01*
X71755000Y-13200000D02*
X72255000Y-12700000D01*
X72255000Y-12700000D02*
X71755000Y-12200000D01*
X72555000Y-3400000D02*
X72555000Y-14800000D01*
X72555000Y-3400000D02*
X72855000Y-3400000D01*
X72555000Y-14800000D02*
X77155000Y-14800000D01*
X72855000Y-3400000D02*
X72855000Y-600000D01*
X78655000Y-600000D02*
X72855000Y-600000D01*
X78655000Y-3400000D02*
X78655000Y-600000D01*
X78655000Y-3400000D02*
X79855000Y-3400000D01*
X79855000Y-3400000D02*
X79855000Y-14800000D01*
X79855000Y-14800000D02*
X78755000Y-14800000D01*
%TO.C,R2*%
X36880000Y-35000000D02*
X37650000Y-35000000D01*
X44960000Y-35000000D02*
X44190000Y-35000000D01*
X37650000Y-33630000D02*
X44190000Y-33630000D01*
X44190000Y-36370000D01*
X37650000Y-36370000D01*
X37650000Y-33630000D01*
%TO.C,R12*%
X72395323Y-21960000D02*
X72395323Y-22730000D01*
X72395323Y-30040000D02*
X72395323Y-29270000D01*
X71025323Y-29270000D02*
X73765323Y-29270000D01*
X73765323Y-22730000D01*
X71025323Y-22730000D01*
X71025323Y-29270000D01*
%TO.C,R8*%
X65353453Y-21960000D02*
X65353453Y-22730000D01*
X65353453Y-30040000D02*
X65353453Y-29270000D01*
X63983453Y-29270000D02*
X66723453Y-29270000D01*
X66723453Y-22730000D01*
X63983453Y-22730000D01*
X63983453Y-29270000D01*
%TO.C,MIDI_OUT2*%
X43000000Y-12200000D02*
X43000000Y-13200000D01*
X43000000Y-13200000D02*
X43500000Y-12700000D01*
X43500000Y-12700000D02*
X43000000Y-12200000D01*
X43800000Y-3400000D02*
X43800000Y-14800000D01*
X43800000Y-3400000D02*
X44100000Y-3400000D01*
X43800000Y-14800000D02*
X48400000Y-14800000D01*
X44100000Y-3400000D02*
X44100000Y-600000D01*
X49900000Y-600000D02*
X44100000Y-600000D01*
X49900000Y-3400000D02*
X49900000Y-600000D01*
X49900000Y-3400000D02*
X51100000Y-3400000D01*
X51100000Y-3400000D02*
X51100000Y-14800000D01*
X51100000Y-14800000D02*
X50000000Y-14800000D01*
%TO.C,D1*%
X28040000Y-59500000D02*
X28690000Y-59500000D01*
X32090000Y-60620000D02*
X32090000Y-58380000D01*
X32210000Y-60620000D02*
X32210000Y-58380000D01*
X32330000Y-60620000D02*
X32330000Y-58380000D01*
X33580000Y-59500000D02*
X32930000Y-59500000D01*
X32930000Y-60620000D02*
X28690000Y-60620000D01*
X28690000Y-58380000D01*
X32930000Y-58380000D01*
X32930000Y-60620000D01*
%TO.C,R1*%
X30460000Y-76500000D02*
X31230000Y-76500000D01*
X38540000Y-76500000D02*
X37770000Y-76500000D01*
X31230000Y-75130000D02*
X37770000Y-75130000D01*
X37770000Y-77870000D01*
X31230000Y-77870000D01*
X31230000Y-75130000D01*
%TO.C,R5*%
X58311582Y-21960000D02*
X58311582Y-22730000D01*
X58311582Y-30040000D02*
X58311582Y-29270000D01*
X56941582Y-29270000D02*
X59681582Y-29270000D01*
X59681582Y-22730000D01*
X56941582Y-22730000D01*
X56941582Y-29270000D01*
%TO.C,SW1*%
X71700000Y-50400000D02*
X72300000Y-50400000D01*
X72000000Y-50700000D02*
X71700000Y-50400000D01*
X72300000Y-50400000D02*
X72000000Y-50700000D01*
X73400000Y-48600000D02*
X73400000Y-60400000D01*
X77500000Y-48600000D02*
X73400000Y-48600000D01*
X77500000Y-60400000D02*
X73400000Y-60400000D01*
X79000000Y-54500000D02*
X80000000Y-54500000D01*
X79500000Y-54000000D02*
X79500000Y-55000000D01*
X81500000Y-48600000D02*
X85600000Y-48600000D01*
X85600000Y-48600000D02*
X85600000Y-51000000D01*
X85600000Y-53200000D02*
X85600000Y-55800000D01*
X85600000Y-58000000D02*
X85600000Y-60400000D01*
X85600000Y-60400000D02*
X81500000Y-60400000D01*
X82500000Y-54500000D02*
G75*
G02*
X76500000Y-54500000I-3000000J0D01*
G01*
X76500000Y-54500000D02*
G75*
G02*
X82500000Y-54500000I3000000J0D01*
G01*
%TD*%
M02*
