%TF.GenerationSoftware,KiCad,Pcbnew,9.0.5*%
%TF.CreationDate,2026-02-14T16:40:19+01:00*%
%TF.ProjectId,MIDISHIELD_v0.2_dessus,4d494449-5348-4494-954c-445f76302e32,rev?*%
%TF.SameCoordinates,Original*%
%TF.FileFunction,Legend,Top*%
%TF.FilePolarity,Positive*%
%FSLAX46Y46*%
G04 Gerber Fmt 4.6, Leading zero omitted, Abs format (unit mm)*
G04 Created by KiCad (PCBNEW 9.0.5) date 2026-02-14 16:40:19*
%MOMM*%
%LPD*%
G01*
G04 APERTURE LIST*
%ADD10C,0.000000*%
%ADD11C,0.100000*%
G04 APERTURE END LIST*
D10*
G36*
X48672134Y-23293989D02*
G01*
X51836542Y-19526335D01*
X53011288Y-19526335D01*
X53011288Y-27146311D01*
X52154041Y-27146311D01*
X52154041Y-20499998D01*
X48672134Y-24638069D01*
X45190228Y-20500000D01*
X45190228Y-27146313D01*
X44332981Y-27146311D01*
X44332981Y-19526335D01*
X45507727Y-19526335D01*
X48672134Y-23293989D01*
G37*
G36*
X91968327Y-21875826D02*
G01*
X87015343Y-21875826D01*
X86994342Y-21876322D01*
X86973671Y-21877810D01*
X86953331Y-21880291D01*
X86933322Y-21883763D01*
X86913644Y-21888228D01*
X86894296Y-21893685D01*
X86875279Y-21900135D01*
X86856593Y-21907576D01*
X86838238Y-21916009D01*
X86820213Y-21925435D01*
X86802519Y-21935853D01*
X86785156Y-21947263D01*
X86768123Y-21959665D01*
X86751421Y-21973060D01*
X86735050Y-21987446D01*
X86719009Y-22002825D01*
X86704912Y-22017584D01*
X86691725Y-22032756D01*
X86679446Y-22048342D01*
X86668078Y-22064341D01*
X86657618Y-22080753D01*
X86648068Y-22097579D01*
X86639428Y-22114818D01*
X86631697Y-22132471D01*
X86624876Y-22150537D01*
X86618964Y-22169016D01*
X86613962Y-22187909D01*
X86609869Y-22207215D01*
X86606685Y-22226935D01*
X86604412Y-22247068D01*
X86603047Y-22267614D01*
X86602592Y-22288574D01*
X86602592Y-25865730D01*
X86603047Y-25886732D01*
X86604412Y-25907402D01*
X86606685Y-25927742D01*
X86609869Y-25947751D01*
X86613962Y-25967429D01*
X86618964Y-25986777D01*
X86624876Y-26005794D01*
X86631697Y-26024480D01*
X86639428Y-26042835D01*
X86648068Y-26060860D01*
X86657618Y-26078554D01*
X86668078Y-26095917D01*
X86679446Y-26112949D01*
X86691725Y-26129651D01*
X86704912Y-26146022D01*
X86719009Y-26162062D01*
X86735050Y-26176159D01*
X86751421Y-26189347D01*
X86768123Y-26201626D01*
X86785156Y-26212994D01*
X86802519Y-26223454D01*
X86820213Y-26233004D01*
X86838238Y-26241644D01*
X86856593Y-26249375D01*
X86875279Y-26256196D01*
X86894296Y-26262108D01*
X86913644Y-26267110D01*
X86933322Y-26271203D01*
X86953331Y-26274386D01*
X86973671Y-26276660D01*
X86994342Y-26278024D01*
X87015343Y-26278479D01*
X91989491Y-26278479D01*
X91989491Y-27146309D01*
X87015339Y-27146309D01*
X87015343Y-27146311D01*
X86971894Y-27145649D01*
X86928858Y-27143665D01*
X86886236Y-27140358D01*
X86844027Y-27135728D01*
X86802231Y-27129775D01*
X86760849Y-27122499D01*
X86719880Y-27113900D01*
X86679325Y-27103978D01*
X86639183Y-27092733D01*
X86599454Y-27080165D01*
X86560138Y-27066275D01*
X86521236Y-27051061D01*
X86482748Y-27034525D01*
X86444673Y-27016666D01*
X86407011Y-26997483D01*
X86369762Y-26976978D01*
X86334457Y-26954076D01*
X86299979Y-26930346D01*
X86266328Y-26905789D01*
X86233503Y-26880406D01*
X86201506Y-26854196D01*
X86170335Y-26827159D01*
X86139990Y-26799295D01*
X86110473Y-26770604D01*
X86081783Y-26741087D01*
X86053919Y-26710742D01*
X86026882Y-26679571D01*
X86000672Y-26647573D01*
X85975288Y-26614748D01*
X85950732Y-26581096D01*
X85927002Y-26546618D01*
X85904099Y-26511313D01*
X85883593Y-26474065D01*
X85864411Y-26436403D01*
X85846552Y-26398328D01*
X85830015Y-26359840D01*
X85814802Y-26320938D01*
X85800911Y-26281623D01*
X85788343Y-26241894D01*
X85777098Y-26201752D01*
X85767176Y-26161196D01*
X85758577Y-26120227D01*
X85751301Y-26078845D01*
X85745348Y-26037049D01*
X85740717Y-25994840D01*
X85737410Y-25952217D01*
X85735426Y-25909182D01*
X85734764Y-25865732D01*
X85734764Y-22288576D01*
X85735426Y-22245168D01*
X85737410Y-22202256D01*
X85740717Y-22159841D01*
X85745348Y-22117921D01*
X85751301Y-22076497D01*
X85758577Y-22035570D01*
X85767176Y-21995138D01*
X85777098Y-21955203D01*
X85788343Y-21915763D01*
X85800911Y-21876820D01*
X85814802Y-21838373D01*
X85830015Y-21800422D01*
X85846552Y-21762967D01*
X85864411Y-21726008D01*
X85883593Y-21689545D01*
X85904099Y-21653578D01*
X85927002Y-21617033D01*
X85950732Y-21581480D01*
X85975288Y-21546919D01*
X86000672Y-21513350D01*
X86026882Y-21480773D01*
X86053919Y-21449189D01*
X86081783Y-21418596D01*
X86110473Y-21388996D01*
X86139990Y-21360388D01*
X86170335Y-21332772D01*
X86201506Y-21306149D01*
X86233503Y-21280517D01*
X86266328Y-21255877D01*
X86299979Y-21232230D01*
X86334457Y-21209575D01*
X86369762Y-21187912D01*
X86407011Y-21166125D01*
X86444673Y-21145744D01*
X86482748Y-21126769D01*
X86521236Y-21109199D01*
X86560138Y-21093035D01*
X86599454Y-21078276D01*
X86639183Y-21064923D01*
X86679325Y-21052975D01*
X86719880Y-21042433D01*
X86760849Y-21033297D01*
X86802231Y-21025566D01*
X86844027Y-21019241D01*
X86886236Y-21014321D01*
X86928858Y-21010807D01*
X86971894Y-21008698D01*
X87015343Y-21007996D01*
X91968327Y-21007996D01*
X91968327Y-21875826D01*
G37*
G36*
X54979774Y-19865002D02*
G01*
X54111944Y-19865002D01*
X54111944Y-18997171D01*
X54979774Y-18997171D01*
X54979774Y-19865002D01*
G37*
G36*
X54979774Y-27146311D02*
G01*
X54111944Y-27146311D01*
X54111944Y-21007998D01*
X54979774Y-21007998D01*
X54979774Y-27146311D01*
G37*
G36*
X64388287Y-19865002D02*
G01*
X63520458Y-19865002D01*
X63520458Y-18997171D01*
X64388287Y-18997171D01*
X64388287Y-19865002D01*
G37*
G36*
X72981903Y-23293989D02*
G01*
X76146309Y-19526335D01*
X77321056Y-19526335D01*
X77321056Y-27146311D01*
X76463810Y-27146311D01*
X76463810Y-20499998D01*
X72981907Y-24638069D01*
X69500000Y-20500000D01*
X69500000Y-27146313D01*
X68642750Y-27146311D01*
X68642750Y-19526335D01*
X69817497Y-19526335D01*
X72981903Y-23293989D01*
G37*
G36*
X61193215Y-21008700D02*
G01*
X61236127Y-21010809D01*
X61278543Y-21014323D01*
X61320463Y-21019242D01*
X61361887Y-21025568D01*
X61402815Y-21033299D01*
X61443247Y-21042435D01*
X61483182Y-21052977D01*
X61522621Y-21064925D01*
X61561565Y-21078278D01*
X61600012Y-21093036D01*
X61637963Y-21109201D01*
X61675417Y-21126771D01*
X61712376Y-21145746D01*
X61748839Y-21166127D01*
X61784805Y-21187914D01*
X61821351Y-21209577D01*
X61856904Y-21232231D01*
X61891466Y-21255879D01*
X61925035Y-21280518D01*
X61957612Y-21306149D01*
X61989196Y-21332773D01*
X62019789Y-21360389D01*
X62049389Y-21388997D01*
X62077998Y-21418597D01*
X62105614Y-21449189D01*
X62132237Y-21480774D01*
X62157869Y-21513351D01*
X62182508Y-21546920D01*
X62206155Y-21581481D01*
X62228810Y-21617034D01*
X62250473Y-21653580D01*
X62272260Y-21689547D01*
X62292641Y-21726010D01*
X62311617Y-21762969D01*
X62329187Y-21800424D01*
X62345351Y-21838375D01*
X62360110Y-21876822D01*
X62373463Y-21915765D01*
X62385411Y-21955205D01*
X62395953Y-21995140D01*
X62405089Y-22035572D01*
X62412820Y-22076499D01*
X62419145Y-22117923D01*
X62424064Y-22159842D01*
X62427578Y-22202258D01*
X62429687Y-22245170D01*
X62430389Y-22288578D01*
X62430389Y-27146313D01*
X61562557Y-27146313D01*
X61562557Y-22288576D01*
X61562061Y-22267616D01*
X61560573Y-22247070D01*
X61558093Y-22226937D01*
X61554620Y-22207217D01*
X61550155Y-22187911D01*
X61544698Y-22169018D01*
X61538249Y-22150539D01*
X61530808Y-22132473D01*
X61522375Y-22114820D01*
X61512949Y-22097581D01*
X61502531Y-22080755D01*
X61491121Y-22064343D01*
X61478719Y-22048344D01*
X61465324Y-22032758D01*
X61450937Y-22017586D01*
X61435558Y-22002827D01*
X61420800Y-21987448D01*
X61405628Y-21973062D01*
X61390042Y-21959667D01*
X61374043Y-21947265D01*
X61357630Y-21935855D01*
X61340804Y-21925437D01*
X61323565Y-21916011D01*
X61305912Y-21907578D01*
X61287846Y-21900136D01*
X61269366Y-21893687D01*
X61250473Y-21888230D01*
X61231166Y-21883765D01*
X61211447Y-21880293D01*
X61191313Y-21877812D01*
X61170767Y-21876324D01*
X61149807Y-21875828D01*
X57466820Y-21875828D01*
X57445819Y-21876324D01*
X57425148Y-21877812D01*
X57404808Y-21880293D01*
X57384799Y-21883765D01*
X57365121Y-21888230D01*
X57345773Y-21893687D01*
X57326757Y-21900136D01*
X57308070Y-21907578D01*
X57289715Y-21916011D01*
X57271690Y-21925437D01*
X57253997Y-21935855D01*
X57236633Y-21947265D01*
X57219601Y-21959667D01*
X57202899Y-21973062D01*
X57186528Y-21987448D01*
X57170488Y-22002827D01*
X57155109Y-22017586D01*
X57140723Y-22032758D01*
X57127328Y-22048344D01*
X57114926Y-22064343D01*
X57103515Y-22080755D01*
X57093097Y-22097581D01*
X57083671Y-22114820D01*
X57075238Y-22132473D01*
X57067796Y-22150539D01*
X57061347Y-22169018D01*
X57055890Y-22187911D01*
X57051425Y-22207217D01*
X57047952Y-22226937D01*
X57045472Y-22247070D01*
X57043984Y-22267616D01*
X57043488Y-22288576D01*
X57043488Y-27146311D01*
X56175657Y-27146311D01*
X56175657Y-21007998D01*
X61149807Y-21007998D01*
X61193215Y-21008700D01*
G37*
G36*
X64388287Y-27146311D02*
G01*
X63520458Y-27146311D01*
X63520458Y-21007998D01*
X64388287Y-21007998D01*
X64388287Y-27146311D01*
G37*
G36*
X83419384Y-21008698D02*
G01*
X83463495Y-21010807D01*
X83507027Y-21014321D01*
X83549980Y-21019241D01*
X83592355Y-21025566D01*
X83634151Y-21033297D01*
X83675368Y-21042433D01*
X83716006Y-21052975D01*
X83756065Y-21064923D01*
X83795546Y-21078276D01*
X83834448Y-21093035D01*
X83872771Y-21109199D01*
X83910515Y-21126769D01*
X83947681Y-21145744D01*
X83984267Y-21166125D01*
X84020275Y-21187912D01*
X84056821Y-21209575D01*
X84092374Y-21232230D01*
X84126935Y-21255877D01*
X84160504Y-21280516D01*
X84193081Y-21306147D01*
X84224665Y-21332771D01*
X84255257Y-21360387D01*
X84284857Y-21388995D01*
X84313465Y-21418595D01*
X84341081Y-21449187D01*
X84367704Y-21480772D01*
X84393336Y-21513349D01*
X84417975Y-21546918D01*
X84441622Y-21581479D01*
X84464276Y-21617032D01*
X84485939Y-21653578D01*
X84507726Y-21689545D01*
X84528107Y-21726008D01*
X84547083Y-21762967D01*
X84564653Y-21800422D01*
X84580817Y-21838373D01*
X84595576Y-21876820D01*
X84608929Y-21915763D01*
X84620877Y-21955203D01*
X84631419Y-21995138D01*
X84640555Y-22035570D01*
X84648286Y-22076497D01*
X84654611Y-22117921D01*
X84659530Y-22159841D01*
X84663044Y-22202256D01*
X84665153Y-22245168D01*
X84665855Y-22288576D01*
X84665855Y-25865732D01*
X84665153Y-25909182D01*
X84663044Y-25952217D01*
X84659530Y-25994840D01*
X84654611Y-26037049D01*
X84648286Y-26078845D01*
X84640555Y-26120227D01*
X84631419Y-26161196D01*
X84620877Y-26201752D01*
X84608929Y-26241894D01*
X84595576Y-26281623D01*
X84580817Y-26320938D01*
X84564653Y-26359840D01*
X84547083Y-26398328D01*
X84528107Y-26436403D01*
X84507726Y-26474065D01*
X84485939Y-26511313D01*
X84464276Y-26546618D01*
X84441621Y-26581096D01*
X84417974Y-26614748D01*
X84393335Y-26647573D01*
X84367703Y-26679571D01*
X84341080Y-26710742D01*
X84313464Y-26741087D01*
X84284856Y-26770604D01*
X84255256Y-26799295D01*
X84224663Y-26827159D01*
X84193079Y-26854196D01*
X84160502Y-26880406D01*
X84126934Y-26905789D01*
X84092373Y-26930346D01*
X84056820Y-26954076D01*
X84020275Y-26976978D01*
X83984267Y-26997483D01*
X83947681Y-27016666D01*
X83910515Y-27034525D01*
X83872771Y-27051061D01*
X83834448Y-27066275D01*
X83795546Y-27080165D01*
X83756065Y-27092733D01*
X83716006Y-27103978D01*
X83675368Y-27113900D01*
X83634151Y-27122499D01*
X83592355Y-27129775D01*
X83549980Y-27135728D01*
X83507027Y-27140358D01*
X83463495Y-27143665D01*
X83419384Y-27145649D01*
X83374695Y-27146311D01*
X79691708Y-27146311D01*
X79648258Y-27145649D01*
X79605222Y-27143665D01*
X79562599Y-27140358D01*
X79520390Y-27135728D01*
X79478594Y-27129775D01*
X79437211Y-27122499D01*
X79396242Y-27113900D01*
X79355687Y-27103978D01*
X79315545Y-27092733D01*
X79275816Y-27080165D01*
X79236501Y-27066275D01*
X79197599Y-27051061D01*
X79159111Y-27034525D01*
X79121036Y-27016666D01*
X79083375Y-26997483D01*
X79046127Y-26976978D01*
X79010822Y-26954076D01*
X78976344Y-26930346D01*
X78942693Y-26905789D01*
X78909868Y-26880406D01*
X78877870Y-26854196D01*
X78846700Y-26827159D01*
X78816355Y-26799295D01*
X78786838Y-26770604D01*
X78758148Y-26741087D01*
X78730284Y-26710742D01*
X78703247Y-26679571D01*
X78677037Y-26647573D01*
X78651653Y-26614748D01*
X78627096Y-26581096D01*
X78603367Y-26546618D01*
X78580463Y-26511313D01*
X78559958Y-26474065D01*
X78540776Y-26436403D01*
X78522917Y-26398328D01*
X78506380Y-26359840D01*
X78491167Y-26320938D01*
X78477276Y-26281623D01*
X78464708Y-26241894D01*
X78453463Y-26201752D01*
X78443541Y-26161196D01*
X78434942Y-26120227D01*
X78427666Y-26078845D01*
X78421713Y-26037049D01*
X78417082Y-25994840D01*
X78413775Y-25952217D01*
X78411790Y-25909182D01*
X78411129Y-25865732D01*
X79278957Y-25865732D01*
X79279412Y-25886733D01*
X79280776Y-25907404D01*
X79283050Y-25927744D01*
X79286234Y-25947753D01*
X79290326Y-25967431D01*
X79295329Y-25986779D01*
X79301241Y-26005796D01*
X79308062Y-26024482D01*
X79315793Y-26042837D01*
X79324433Y-26060862D01*
X79333983Y-26078556D01*
X79344442Y-26095919D01*
X79355811Y-26112951D01*
X79368089Y-26129653D01*
X79381277Y-26146024D01*
X79395374Y-26162064D01*
X79411415Y-26176161D01*
X79427786Y-26189349D01*
X79444488Y-26201627D01*
X79461520Y-26212996D01*
X79478884Y-26223456D01*
X79496578Y-26233006D01*
X79514603Y-26241646D01*
X79532958Y-26249377D01*
X79551644Y-26256198D01*
X79570661Y-26262110D01*
X79590009Y-26267112D01*
X79609687Y-26271205D01*
X79629696Y-26274388D01*
X79650036Y-26276662D01*
X79670706Y-26278026D01*
X79691708Y-26278481D01*
X83374695Y-26278481D01*
X83395655Y-26278026D01*
X83416201Y-26276662D01*
X83436334Y-26274388D01*
X83456054Y-26271205D01*
X83475360Y-26267112D01*
X83494253Y-26262110D01*
X83512732Y-26256198D01*
X83530798Y-26249377D01*
X83548450Y-26241646D01*
X83565690Y-26233006D01*
X83582515Y-26223456D01*
X83598928Y-26212996D01*
X83614926Y-26201627D01*
X83630512Y-26189349D01*
X83645684Y-26176161D01*
X83660442Y-26162064D01*
X83675821Y-26146023D01*
X83690208Y-26129652D01*
X83703603Y-26112950D01*
X83716005Y-26095918D01*
X83727415Y-26078554D01*
X83737833Y-26060860D01*
X83747259Y-26042836D01*
X83755692Y-26024480D01*
X83763133Y-26005794D01*
X83769582Y-25986777D01*
X83775039Y-25967430D01*
X83779504Y-25947752D01*
X83782977Y-25927743D01*
X83785457Y-25907403D01*
X83786945Y-25886733D01*
X83787441Y-25865732D01*
X83787441Y-22288576D01*
X83786945Y-22267616D01*
X83785457Y-22247070D01*
X83782977Y-22226937D01*
X83779504Y-22207217D01*
X83775039Y-22187911D01*
X83769582Y-22169018D01*
X83763133Y-22150539D01*
X83755692Y-22132473D01*
X83747259Y-22114820D01*
X83737833Y-22097581D01*
X83727415Y-22080755D01*
X83716005Y-22064343D01*
X83703603Y-22048344D01*
X83690208Y-22032758D01*
X83675821Y-22017586D01*
X83660442Y-22002827D01*
X83645684Y-21987448D01*
X83630512Y-21973062D01*
X83614926Y-21959667D01*
X83598928Y-21947265D01*
X83582515Y-21935855D01*
X83565690Y-21925437D01*
X83548450Y-21916011D01*
X83530798Y-21907578D01*
X83512732Y-21900136D01*
X83494253Y-21893687D01*
X83475360Y-21888230D01*
X83456054Y-21883765D01*
X83436334Y-21880293D01*
X83416201Y-21877812D01*
X83395655Y-21876324D01*
X83374695Y-21875828D01*
X79691708Y-21875828D01*
X79670706Y-21876324D01*
X79650036Y-21877812D01*
X79629696Y-21880293D01*
X79609687Y-21883765D01*
X79590009Y-21888230D01*
X79570661Y-21893687D01*
X79551644Y-21900136D01*
X79532958Y-21907578D01*
X79514603Y-21916011D01*
X79496578Y-21925437D01*
X79478884Y-21935855D01*
X79461520Y-21947265D01*
X79444488Y-21959667D01*
X79427786Y-21973062D01*
X79411415Y-21987448D01*
X79395374Y-22002827D01*
X79381277Y-22017586D01*
X79368089Y-22032758D01*
X79355811Y-22048344D01*
X79344442Y-22064343D01*
X79333983Y-22080755D01*
X79324433Y-22097581D01*
X79315793Y-22114820D01*
X79308062Y-22132473D01*
X79301241Y-22150539D01*
X79295329Y-22169018D01*
X79290326Y-22187911D01*
X79286234Y-22207217D01*
X79283050Y-22226937D01*
X79280776Y-22247070D01*
X79279412Y-22267616D01*
X79278957Y-22288576D01*
X79278957Y-25865732D01*
X78411129Y-25865732D01*
X78411129Y-22288576D01*
X78411790Y-22245168D01*
X78413775Y-22202256D01*
X78417082Y-22159841D01*
X78421713Y-22117921D01*
X78427666Y-22076497D01*
X78434942Y-22035570D01*
X78443541Y-21995138D01*
X78453463Y-21955203D01*
X78464708Y-21915763D01*
X78477276Y-21876820D01*
X78491167Y-21838373D01*
X78506380Y-21800422D01*
X78522917Y-21762967D01*
X78540776Y-21726008D01*
X78559958Y-21689545D01*
X78580463Y-21653578D01*
X78603367Y-21617033D01*
X78627096Y-21581480D01*
X78651653Y-21546919D01*
X78677037Y-21513350D01*
X78703247Y-21480773D01*
X78730284Y-21449189D01*
X78758148Y-21418596D01*
X78786838Y-21388996D01*
X78816355Y-21360388D01*
X78846700Y-21332772D01*
X78877870Y-21306149D01*
X78909868Y-21280517D01*
X78942693Y-21255877D01*
X78976344Y-21232230D01*
X79010822Y-21209575D01*
X79046127Y-21187912D01*
X79083376Y-21166125D01*
X79121037Y-21145744D01*
X79159113Y-21126769D01*
X79197601Y-21109199D01*
X79236503Y-21093035D01*
X79275819Y-21078276D01*
X79315547Y-21064923D01*
X79355690Y-21052975D01*
X79396245Y-21042433D01*
X79437214Y-21033297D01*
X79478596Y-21025566D01*
X79520392Y-21019241D01*
X79562601Y-21014321D01*
X79605223Y-21010807D01*
X79648259Y-21008698D01*
X79691708Y-21007996D01*
X83374695Y-21007996D01*
X83419384Y-21008698D01*
G37*
D11*
G36*
X74973220Y-66660000D02*
G01*
X74884320Y-66648377D01*
X74803715Y-66613838D01*
X74734467Y-66559885D01*
X74680617Y-66490617D01*
X74646074Y-66410029D01*
X74634455Y-66321235D01*
X74634455Y-66298764D01*
X74864043Y-66298764D01*
X74864043Y-66321235D01*
X74872041Y-66362833D01*
X74896161Y-66398293D01*
X74931622Y-66422413D01*
X74973220Y-66430411D01*
X75947627Y-66430411D01*
X75989204Y-66422409D01*
X76024563Y-66398293D01*
X76048779Y-66362823D01*
X76056803Y-66321235D01*
X76056803Y-66071985D01*
X76048775Y-66030417D01*
X76024563Y-65995048D01*
X75989194Y-65970837D01*
X75947627Y-65962808D01*
X74973220Y-65962808D01*
X74884320Y-65951186D01*
X74803715Y-65916646D01*
X74734467Y-65862694D01*
X74680617Y-65793426D01*
X74646074Y-65712838D01*
X74634455Y-65624043D01*
X74634455Y-65374794D01*
X74646081Y-65285912D01*
X74680617Y-65205411D01*
X74734481Y-65136068D01*
X74803715Y-65082191D01*
X74884320Y-65047651D01*
X74973220Y-65036029D01*
X75947627Y-65036029D01*
X76038833Y-65047737D01*
X76119696Y-65082191D01*
X76189030Y-65136077D01*
X76242916Y-65205411D01*
X76277546Y-65285920D01*
X76289200Y-65374794D01*
X76289200Y-65397142D01*
X76056803Y-65397142D01*
X76056803Y-65374794D01*
X76048775Y-65333226D01*
X76024563Y-65297857D01*
X75989194Y-65273645D01*
X75947627Y-65265617D01*
X74973220Y-65265617D01*
X74931631Y-65273641D01*
X74896161Y-65297857D01*
X74872045Y-65333217D01*
X74864043Y-65374794D01*
X74864043Y-65624043D01*
X74872036Y-65665537D01*
X74896161Y-65700980D01*
X74931631Y-65725196D01*
X74973220Y-65733220D01*
X75947627Y-65733220D01*
X76038833Y-65744928D01*
X76119696Y-65779382D01*
X76189030Y-65833268D01*
X76242916Y-65902602D01*
X76277546Y-65983111D01*
X76289200Y-66071985D01*
X76289200Y-66321235D01*
X76277553Y-66410021D01*
X76242916Y-66490617D01*
X76189044Y-66559876D01*
X76119696Y-66613838D01*
X76038833Y-66648291D01*
X75947627Y-66660000D01*
X74973220Y-66660000D01*
G37*
G36*
X77924999Y-65047737D02*
G01*
X78005861Y-65082191D01*
X78075196Y-65136077D01*
X78129082Y-65205411D01*
X78163711Y-65285920D01*
X78175366Y-65374794D01*
X78175366Y-65962808D01*
X76750087Y-65962808D01*
X76750087Y-66321235D01*
X76758111Y-66362823D01*
X76782327Y-66398293D01*
X76817787Y-66422413D01*
X76859385Y-66430411D01*
X78175366Y-66430411D01*
X78175366Y-66660000D01*
X76859385Y-66660000D01*
X76770486Y-66648377D01*
X76689881Y-66613838D01*
X76620607Y-66559890D01*
X76566660Y-66490617D01*
X76532117Y-66410029D01*
X76520498Y-66321235D01*
X76520498Y-65374794D01*
X76750087Y-65374794D01*
X76750087Y-65733220D01*
X77942969Y-65733220D01*
X77942969Y-65374794D01*
X77934941Y-65333226D01*
X77910729Y-65297857D01*
X77875276Y-65273636D01*
X77833792Y-65265617D01*
X76859385Y-65265617D01*
X76817797Y-65273641D01*
X76782327Y-65297857D01*
X76758115Y-65333226D01*
X76750087Y-65374794D01*
X76520498Y-65374794D01*
X76532124Y-65285912D01*
X76566660Y-65205411D01*
X76620622Y-65136063D01*
X76689881Y-65082191D01*
X76770486Y-65047651D01*
X76859385Y-65036029D01*
X77833792Y-65036029D01*
X77924999Y-65047737D01*
G37*
G36*
X78741887Y-66660000D02*
G01*
X78652987Y-66648377D01*
X78572383Y-66613838D01*
X78503109Y-66559890D01*
X78449162Y-66490617D01*
X78414619Y-66410029D01*
X78403000Y-66321235D01*
X78403000Y-64503946D01*
X78632588Y-64503946D01*
X78632588Y-66321235D01*
X78640613Y-66362823D01*
X78664829Y-66398293D01*
X78700289Y-66422413D01*
X78741887Y-66430411D01*
X79016172Y-66430411D01*
X79016172Y-66660000D01*
X78741887Y-66660000D01*
G37*
G36*
X80607762Y-65047737D02*
G01*
X80688625Y-65082191D01*
X80757959Y-65136077D01*
X80811845Y-65205411D01*
X80846475Y-65285920D01*
X80858129Y-65374794D01*
X80858129Y-65962808D01*
X79432850Y-65962808D01*
X79432850Y-66321235D01*
X79440875Y-66362823D01*
X79465090Y-66398293D01*
X79500551Y-66422413D01*
X79542149Y-66430411D01*
X80858129Y-66430411D01*
X80858129Y-66660000D01*
X79542149Y-66660000D01*
X79453249Y-66648377D01*
X79372644Y-66613838D01*
X79303371Y-66559890D01*
X79249424Y-66490617D01*
X79214881Y-66410029D01*
X79203262Y-66321235D01*
X79203262Y-65374794D01*
X79432850Y-65374794D01*
X79432850Y-65733220D01*
X80625732Y-65733220D01*
X80625732Y-65374794D01*
X80617704Y-65333226D01*
X80593492Y-65297857D01*
X80558039Y-65273636D01*
X80516556Y-65265617D01*
X79542149Y-65265617D01*
X79500560Y-65273641D01*
X79465090Y-65297857D01*
X79440878Y-65333226D01*
X79432850Y-65374794D01*
X79203262Y-65374794D01*
X79214888Y-65285912D01*
X79249424Y-65205411D01*
X79303385Y-65136063D01*
X79372644Y-65082191D01*
X79453249Y-65047651D01*
X79542149Y-65036029D01*
X80516556Y-65036029D01*
X80607762Y-65047737D01*
G37*
G36*
X81421842Y-66660000D02*
G01*
X81332942Y-66648377D01*
X81252337Y-66613838D01*
X81183064Y-66559890D01*
X81129117Y-66490617D01*
X81094574Y-66410029D01*
X81082955Y-66321235D01*
X81082955Y-65374794D01*
X81094581Y-65285912D01*
X81129117Y-65205411D01*
X81183078Y-65136063D01*
X81252337Y-65082191D01*
X81332942Y-65047651D01*
X81421842Y-65036029D01*
X82732205Y-65036029D01*
X82732205Y-65265617D01*
X81421842Y-65265617D01*
X81380253Y-65273641D01*
X81344783Y-65297857D01*
X81320571Y-65333226D01*
X81312543Y-65374794D01*
X81312543Y-66321235D01*
X81320567Y-66362823D01*
X81344783Y-66398293D01*
X81380244Y-66422413D01*
X81421842Y-66430411D01*
X82737822Y-66430411D01*
X82737822Y-66660000D01*
X81421842Y-66660000D01*
G37*
G36*
X83303122Y-66660000D02*
G01*
X83211897Y-66648295D01*
X83130931Y-66613838D01*
X83061962Y-66559827D01*
X83009176Y-66490617D01*
X82975659Y-66410108D01*
X82964357Y-66321235D01*
X82964357Y-64503946D01*
X83193946Y-64503946D01*
X83193946Y-65036029D01*
X83896755Y-65036029D01*
X83896755Y-65265617D01*
X83193946Y-65265617D01*
X83193946Y-66321235D01*
X83201970Y-66362823D01*
X83226186Y-66398293D01*
X83261629Y-66422419D01*
X83303122Y-66430411D01*
X83896755Y-66430411D01*
X83896755Y-66660000D01*
X83303122Y-66660000D01*
G37*
G36*
X1487142Y-42940000D02*
G01*
X1398269Y-42928698D01*
X1317759Y-42895181D01*
X1248852Y-42842333D01*
X1196004Y-42773426D01*
X1162487Y-42692917D01*
X1151186Y-42604043D01*
X1151186Y-40924019D01*
X1377965Y-40924019D01*
X1377965Y-42604043D01*
X1385984Y-42645527D01*
X1410205Y-42680980D01*
X1445658Y-42705201D01*
X1487142Y-42713220D01*
X2831210Y-42713220D01*
X2872778Y-42705192D01*
X2908147Y-42680980D01*
X2932368Y-42645527D01*
X2940387Y-42604043D01*
X2940387Y-40924019D01*
X3167166Y-40924019D01*
X3167166Y-42604043D01*
X3155865Y-42692917D01*
X3122348Y-42773426D01*
X3069575Y-42842319D01*
X3000593Y-42895181D01*
X2920171Y-42928691D01*
X2831210Y-42940000D01*
X1487142Y-42940000D01*
G37*
G36*
X3796214Y-42940000D02*
G01*
X3707235Y-42928694D01*
X3626709Y-42895181D01*
X3557802Y-42842333D01*
X3504954Y-42773426D01*
X3471437Y-42692917D01*
X3460136Y-42604043D01*
X3460136Y-42525642D01*
X3686915Y-42525642D01*
X3686915Y-42604043D01*
X3694934Y-42645527D01*
X3719155Y-42680980D01*
X3754625Y-42705196D01*
X3796214Y-42713220D01*
X5140160Y-42713220D01*
X5181728Y-42705192D01*
X5217096Y-42680980D01*
X5241318Y-42645527D01*
X5249337Y-42604043D01*
X5249337Y-42153171D01*
X5241265Y-42111836D01*
X5217096Y-42077578D01*
X5181841Y-42054512D01*
X5140160Y-42046803D01*
X3796214Y-42046803D01*
X3707314Y-42035181D01*
X3626709Y-42000642D01*
X3557642Y-41946870D01*
X3504954Y-41878764D01*
X3471477Y-41799500D01*
X3460136Y-41710847D01*
X3460136Y-41259975D01*
X3471441Y-41171120D01*
X3504954Y-41090715D01*
X3557811Y-41021707D01*
X3626709Y-40968838D01*
X3707235Y-40935324D01*
X3796214Y-40924019D01*
X5140160Y-40924019D01*
X5229121Y-40935328D01*
X5309542Y-40968838D01*
X5378516Y-41021721D01*
X5431297Y-41090715D01*
X5464811Y-41171120D01*
X5476116Y-41259975D01*
X5476116Y-41338377D01*
X5249337Y-41338377D01*
X5249337Y-41259975D01*
X5241308Y-41218407D01*
X5217096Y-41183039D01*
X5181728Y-41158827D01*
X5140160Y-41150799D01*
X3796214Y-41150799D01*
X3754625Y-41158823D01*
X3719155Y-41183039D01*
X3694943Y-41218407D01*
X3686915Y-41259975D01*
X3686915Y-41710847D01*
X3694977Y-41752098D01*
X3719155Y-41786441D01*
X3754512Y-41809511D01*
X3796214Y-41817215D01*
X5140160Y-41817215D01*
X5229041Y-41828841D01*
X5309542Y-41863377D01*
X5378670Y-41917087D01*
X5431297Y-41985254D01*
X5464774Y-42064519D01*
X5476116Y-42153171D01*
X5476116Y-42604043D01*
X5464814Y-42692917D01*
X5431297Y-42773426D01*
X5378525Y-42842319D01*
X5309542Y-42895181D01*
X5229121Y-42928691D01*
X5140160Y-42940000D01*
X3796214Y-42940000D01*
G37*
G36*
X7464448Y-40935324D02*
G01*
X7544853Y-40968838D01*
X7613852Y-41021716D01*
X7666730Y-41090715D01*
X7700244Y-41171120D01*
X7711549Y-41259975D01*
X7711549Y-41688377D01*
X7701779Y-41765436D01*
X7675157Y-41836755D01*
X7767480Y-41996489D01*
X7790756Y-42064819D01*
X7798377Y-42133632D01*
X7798377Y-42604043D01*
X7787075Y-42692917D01*
X7753558Y-42773426D01*
X7700689Y-42842324D01*
X7631681Y-42895181D01*
X7551276Y-42928695D01*
X7462421Y-42940000D01*
X5782397Y-42940000D01*
X5782397Y-42133632D01*
X6009176Y-42133632D01*
X6009176Y-42604043D01*
X6017168Y-42645537D01*
X6041294Y-42680980D01*
X6076764Y-42705196D01*
X6118353Y-42713220D01*
X7462421Y-42713220D01*
X7503905Y-42705201D01*
X7539357Y-42680980D01*
X7563579Y-42645527D01*
X7571598Y-42604043D01*
X7571598Y-42133632D01*
X7563569Y-42092064D01*
X7539357Y-42056695D01*
X7503905Y-42032474D01*
X7462421Y-42024455D01*
X6118353Y-42024455D01*
X6076764Y-42032480D01*
X6041294Y-42056695D01*
X6017178Y-42092055D01*
X6009176Y-42133632D01*
X5782397Y-42133632D01*
X5782397Y-41259975D01*
X6009176Y-41259975D01*
X6009176Y-41688377D01*
X6017174Y-41729975D01*
X6041294Y-41765436D01*
X6076755Y-41789556D01*
X6118353Y-41797554D01*
X7375593Y-41797554D01*
X7416937Y-41789508D01*
X7451186Y-41765436D01*
X7474256Y-41730078D01*
X7481960Y-41688377D01*
X7481960Y-41259975D01*
X7474252Y-41218294D01*
X7451186Y-41183039D01*
X7416927Y-41158870D01*
X7375593Y-41150799D01*
X6118353Y-41150799D01*
X6076764Y-41158823D01*
X6041294Y-41183039D01*
X6017178Y-41218398D01*
X6009176Y-41259975D01*
X5782397Y-41259975D01*
X5782397Y-40924019D01*
X7375593Y-40924019D01*
X7464448Y-40935324D01*
G37*
G36*
X2925603Y-44298450D02*
G01*
X3006088Y-44332990D01*
X3075242Y-44386695D01*
X3127965Y-44454867D01*
X3161442Y-44534131D01*
X3172784Y-44622784D01*
X3172784Y-45213607D01*
X3161439Y-45302365D01*
X3127965Y-45381646D01*
X3075250Y-45449718D01*
X3006088Y-45503401D01*
X2925603Y-45537941D01*
X2836828Y-45549563D01*
X1383583Y-45549563D01*
X1383583Y-46300000D01*
X1156803Y-46300000D01*
X1156803Y-44622784D01*
X1383583Y-44622784D01*
X1383583Y-45213607D01*
X1391628Y-45254952D01*
X1415701Y-45289200D01*
X1451058Y-45312270D01*
X1492759Y-45319975D01*
X2836828Y-45319975D01*
X2878508Y-45312267D01*
X2913764Y-45289200D01*
X2937933Y-45254942D01*
X2946004Y-45213607D01*
X2946004Y-44622784D01*
X2937976Y-44581216D01*
X2913764Y-44545847D01*
X2878395Y-44521636D01*
X2836828Y-44513607D01*
X1492759Y-44513607D01*
X1451171Y-44521632D01*
X1415701Y-44545847D01*
X1391585Y-44581207D01*
X1383583Y-44622784D01*
X1156803Y-44622784D01*
X1156803Y-44286828D01*
X2836828Y-44286828D01*
X2925603Y-44298450D01*
G37*
G36*
X4761077Y-44687737D02*
G01*
X4841939Y-44722191D01*
X4911274Y-44776077D01*
X4965160Y-44845411D01*
X4999789Y-44925920D01*
X5011444Y-45014794D01*
X5011444Y-45961235D01*
X4999797Y-46050021D01*
X4965160Y-46130617D01*
X4911288Y-46199876D01*
X4841939Y-46253838D01*
X4761077Y-46288291D01*
X4669870Y-46300000D01*
X3695464Y-46300000D01*
X3606564Y-46288377D01*
X3525959Y-46253838D01*
X3456686Y-46199890D01*
X3402739Y-46130617D01*
X3368195Y-46050029D01*
X3356577Y-45961235D01*
X3356577Y-45014794D01*
X3586165Y-45014794D01*
X3586165Y-45961235D01*
X3594189Y-46002823D01*
X3618405Y-46038293D01*
X3653865Y-46062413D01*
X3695464Y-46070411D01*
X4669870Y-46070411D01*
X4711363Y-46062419D01*
X4746807Y-46038293D01*
X4771023Y-46002823D01*
X4779047Y-45961235D01*
X4779047Y-45014794D01*
X4771019Y-44973226D01*
X4746807Y-44937857D01*
X4711354Y-44913636D01*
X4669870Y-44905617D01*
X3695464Y-44905617D01*
X3653875Y-44913641D01*
X3618405Y-44937857D01*
X3594193Y-44973226D01*
X3586165Y-45014794D01*
X3356577Y-45014794D01*
X3368202Y-44925912D01*
X3402739Y-44845411D01*
X3456700Y-44776063D01*
X3525959Y-44722191D01*
X3606564Y-44687651D01*
X3695464Y-44676029D01*
X4669870Y-44676029D01*
X4761077Y-44687737D01*
G37*
G36*
X5788869Y-46300000D02*
G01*
X5150418Y-44676029D01*
X5396859Y-44676029D01*
X5889619Y-45885642D01*
X6413276Y-44676029D01*
X6715648Y-44676029D01*
X7272889Y-45882833D01*
X7732065Y-44676029D01*
X7981315Y-44676029D01*
X7368021Y-46300000D01*
X7169330Y-46300000D01*
X6564462Y-44958740D01*
X5990491Y-46300000D01*
X5788869Y-46300000D01*
G37*
G36*
X9507204Y-44687737D02*
G01*
X9588066Y-44722191D01*
X9657401Y-44776077D01*
X9711287Y-44845411D01*
X9745916Y-44925920D01*
X9757571Y-45014794D01*
X9757571Y-45602808D01*
X8332292Y-45602808D01*
X8332292Y-45961235D01*
X8340316Y-46002823D01*
X8364532Y-46038293D01*
X8399992Y-46062413D01*
X8441591Y-46070411D01*
X9757571Y-46070411D01*
X9757571Y-46300000D01*
X8441591Y-46300000D01*
X8352691Y-46288377D01*
X8272086Y-46253838D01*
X8202813Y-46199890D01*
X8148866Y-46130617D01*
X8114322Y-46050029D01*
X8102704Y-45961235D01*
X8102704Y-45014794D01*
X8332292Y-45014794D01*
X8332292Y-45373220D01*
X9525174Y-45373220D01*
X9525174Y-45014794D01*
X9517146Y-44973226D01*
X9492934Y-44937857D01*
X9457481Y-44913636D01*
X9415997Y-44905617D01*
X8441591Y-44905617D01*
X8400002Y-44913641D01*
X8364532Y-44937857D01*
X8340320Y-44973226D01*
X8332292Y-45014794D01*
X8102704Y-45014794D01*
X8114329Y-44925912D01*
X8148866Y-44845411D01*
X8202827Y-44776063D01*
X8272086Y-44722191D01*
X8352691Y-44687651D01*
X8441591Y-44676029D01*
X9415997Y-44676029D01*
X9507204Y-44687737D01*
G37*
G36*
X10028192Y-46300000D02*
G01*
X10028192Y-45014794D01*
X10039818Y-44925912D01*
X10074354Y-44845411D01*
X10128315Y-44776063D01*
X10197575Y-44722191D01*
X10278179Y-44687651D01*
X10367079Y-44676029D01*
X11279815Y-44676029D01*
X11279815Y-44905617D01*
X10367079Y-44905617D01*
X10325490Y-44913641D01*
X10290020Y-44937857D01*
X10265809Y-44973226D01*
X10257780Y-45014794D01*
X10257780Y-46300000D01*
X10028192Y-46300000D01*
G37*
G36*
X1492759Y-49660000D02*
G01*
X1403886Y-49648698D01*
X1323377Y-49615181D01*
X1254470Y-49562333D01*
X1201622Y-49493426D01*
X1168105Y-49412917D01*
X1156803Y-49324043D01*
X1156803Y-47979975D01*
X1168108Y-47891120D01*
X1201622Y-47810715D01*
X1254479Y-47741707D01*
X1323377Y-47688838D01*
X1403886Y-47655321D01*
X1492759Y-47644019D01*
X3167166Y-47644019D01*
X3167166Y-47870799D01*
X1492759Y-47870799D01*
X1451171Y-47878823D01*
X1415701Y-47903039D01*
X1391585Y-47938398D01*
X1383583Y-47979975D01*
X1383583Y-49324043D01*
X1391575Y-49365537D01*
X1415701Y-49400980D01*
X1451171Y-49425196D01*
X1492759Y-49433220D01*
X3167166Y-49433220D01*
X3167166Y-49660000D01*
X1492759Y-49660000D01*
G37*
G36*
X4847050Y-48047737D02*
G01*
X4927913Y-48082191D01*
X4997247Y-48136077D01*
X5051133Y-48205411D01*
X5085763Y-48285920D01*
X5097418Y-48374794D01*
X5097418Y-49321235D01*
X5085770Y-49410021D01*
X5051133Y-49490617D01*
X4997261Y-49559876D01*
X4927913Y-49613838D01*
X4847050Y-49648291D01*
X4755844Y-49660000D01*
X3781437Y-49660000D01*
X3692537Y-49648377D01*
X3611933Y-49613838D01*
X3542659Y-49559890D01*
X3488712Y-49490617D01*
X3454169Y-49410029D01*
X3442550Y-49321235D01*
X3442550Y-48374794D01*
X3672138Y-48374794D01*
X3672138Y-49321235D01*
X3680163Y-49362823D01*
X3704378Y-49398293D01*
X3739839Y-49422413D01*
X3781437Y-49430411D01*
X4755844Y-49430411D01*
X4797337Y-49422419D01*
X4832780Y-49398293D01*
X4856996Y-49362823D01*
X4865020Y-49321235D01*
X4865020Y-48374794D01*
X4856992Y-48333226D01*
X4832780Y-48297857D01*
X4797328Y-48273636D01*
X4755844Y-48265617D01*
X3781437Y-48265617D01*
X3739848Y-48273641D01*
X3704378Y-48297857D01*
X3680167Y-48333226D01*
X3672138Y-48374794D01*
X3442550Y-48374794D01*
X3454176Y-48285912D01*
X3488712Y-48205411D01*
X3542673Y-48136063D01*
X3611933Y-48082191D01*
X3692537Y-48047651D01*
X3781437Y-48036029D01*
X4755844Y-48036029D01*
X4847050Y-48047737D01*
G37*
G36*
X5387334Y-49660000D02*
G01*
X5387334Y-48036029D01*
X7532152Y-48036029D01*
X7623464Y-48047741D01*
X7704344Y-48082191D01*
X7773374Y-48136140D01*
X7826099Y-48205411D01*
X7859609Y-48285833D01*
X7870917Y-48374794D01*
X7870917Y-49660000D01*
X7644138Y-49660000D01*
X7644138Y-48374794D01*
X7635820Y-48333331D01*
X7610554Y-48297857D01*
X7573971Y-48273599D01*
X7532152Y-48265617D01*
X6857309Y-48265617D01*
X6815721Y-48273641D01*
X6780251Y-48297857D01*
X6756135Y-48333217D01*
X6748133Y-48374794D01*
X6748133Y-49660000D01*
X6515736Y-49660000D01*
X6515736Y-48374794D01*
X6507707Y-48333226D01*
X6483496Y-48297857D01*
X6448127Y-48273645D01*
X6406559Y-48265617D01*
X5728907Y-48265617D01*
X5687319Y-48273641D01*
X5651849Y-48297857D01*
X5627733Y-48333217D01*
X5619731Y-48374794D01*
X5619731Y-49660000D01*
X5387334Y-49660000D01*
G37*
G36*
X9529669Y-48047655D02*
G01*
X9610170Y-48082191D01*
X9679505Y-48136077D01*
X9733391Y-48205411D01*
X9768020Y-48285920D01*
X9779675Y-48374794D01*
X9779675Y-49321235D01*
X9768028Y-49410021D01*
X9733391Y-49490617D01*
X9679519Y-49559876D01*
X9610170Y-49613838D01*
X9529669Y-49648374D01*
X9440788Y-49660000D01*
X8354396Y-49660000D01*
X8354396Y-50303946D01*
X8124808Y-50303946D01*
X8124808Y-48374794D01*
X8354396Y-48374794D01*
X8354396Y-49321235D01*
X8362709Y-49362719D01*
X8387979Y-49398293D01*
X8424554Y-49422456D01*
X8466381Y-49430411D01*
X9440788Y-49430411D01*
X9482365Y-49422409D01*
X9517725Y-49398293D01*
X9541940Y-49362823D01*
X9549965Y-49321235D01*
X9549965Y-48374794D01*
X9541936Y-48333226D01*
X9517725Y-48297857D01*
X9482356Y-48273645D01*
X9440788Y-48265617D01*
X8466381Y-48265617D01*
X8424563Y-48273599D01*
X8387979Y-48297857D01*
X8362713Y-48333331D01*
X8354396Y-48374794D01*
X8124808Y-48374794D01*
X8124808Y-48036029D01*
X9440788Y-48036029D01*
X9529669Y-48047655D01*
G37*
G36*
X10318963Y-49660000D02*
G01*
X10230169Y-49648381D01*
X10149581Y-49613838D01*
X10080307Y-49559890D01*
X10026360Y-49490617D01*
X9991817Y-49410029D01*
X9980198Y-49321235D01*
X9980198Y-48036029D01*
X10209787Y-48036029D01*
X10209787Y-49321235D01*
X10217811Y-49362823D01*
X10242027Y-49398293D01*
X10277470Y-49422419D01*
X10318963Y-49430411D01*
X11293370Y-49430411D01*
X11335198Y-49422456D01*
X11371772Y-49398293D01*
X11397138Y-49362709D01*
X11405478Y-49321235D01*
X11405478Y-48036029D01*
X11635066Y-48036029D01*
X11635066Y-49321235D01*
X11623418Y-49410021D01*
X11588782Y-49490617D01*
X11534910Y-49559876D01*
X11465561Y-49613838D01*
X11384682Y-49648288D01*
X11293370Y-49660000D01*
X10318963Y-49660000D01*
G37*
G36*
X12222103Y-49660000D02*
G01*
X12130879Y-49648295D01*
X12049912Y-49613838D01*
X11980943Y-49559827D01*
X11928157Y-49490617D01*
X11894640Y-49410108D01*
X11883339Y-49321235D01*
X11883339Y-47503946D01*
X12112927Y-47503946D01*
X12112927Y-48036029D01*
X12815736Y-48036029D01*
X12815736Y-48265617D01*
X12112927Y-48265617D01*
X12112927Y-49321235D01*
X12120951Y-49362823D01*
X12145167Y-49398293D01*
X12180610Y-49422419D01*
X12222103Y-49430411D01*
X12815736Y-49430411D01*
X12815736Y-49660000D01*
X12222103Y-49660000D01*
G37*
G36*
X14429186Y-48047737D02*
G01*
X14510048Y-48082191D01*
X14579383Y-48136077D01*
X14633269Y-48205411D01*
X14667898Y-48285920D01*
X14679553Y-48374794D01*
X14679553Y-48962808D01*
X13254274Y-48962808D01*
X13254274Y-49321235D01*
X13262298Y-49362823D01*
X13286514Y-49398293D01*
X13321974Y-49422413D01*
X13363572Y-49430411D01*
X14679553Y-49430411D01*
X14679553Y-49660000D01*
X13363572Y-49660000D01*
X13274673Y-49648377D01*
X13194068Y-49613838D01*
X13124795Y-49559890D01*
X13070847Y-49490617D01*
X13036304Y-49410029D01*
X13024685Y-49321235D01*
X13024685Y-48374794D01*
X13254274Y-48374794D01*
X13254274Y-48733220D01*
X14447156Y-48733220D01*
X14447156Y-48374794D01*
X14439128Y-48333226D01*
X14414916Y-48297857D01*
X14379463Y-48273636D01*
X14337979Y-48265617D01*
X13363572Y-48265617D01*
X13321984Y-48273641D01*
X13286514Y-48297857D01*
X13262302Y-48333226D01*
X13254274Y-48374794D01*
X13024685Y-48374794D01*
X13036311Y-48285912D01*
X13070847Y-48205411D01*
X13124809Y-48136063D01*
X13194068Y-48082191D01*
X13274673Y-48047651D01*
X13363572Y-48036029D01*
X14337979Y-48036029D01*
X14429186Y-48047737D01*
G37*
G36*
X14950174Y-49660000D02*
G01*
X14950174Y-48374794D01*
X14961800Y-48285912D01*
X14996336Y-48205411D01*
X15050297Y-48136063D01*
X15119556Y-48082191D01*
X15200161Y-48047651D01*
X15289061Y-48036029D01*
X16201796Y-48036029D01*
X16201796Y-48265617D01*
X15289061Y-48265617D01*
X15247472Y-48273641D01*
X15212002Y-48297857D01*
X15187791Y-48333226D01*
X15179762Y-48374794D01*
X15179762Y-49660000D01*
X14950174Y-49660000D01*
G37*
G36*
X1380774Y-27248625D02*
G01*
X2467166Y-27248625D01*
X2556047Y-27260251D01*
X2636549Y-27294787D01*
X2705883Y-27348673D01*
X2759769Y-27418007D01*
X2794399Y-27498516D01*
X2806053Y-27587390D01*
X2806053Y-28533831D01*
X2794406Y-28622617D01*
X2759769Y-28703213D01*
X2705897Y-28772472D01*
X2636549Y-28826434D01*
X2556047Y-28860970D01*
X2467166Y-28872596D01*
X1151186Y-28872596D01*
X1151186Y-27587390D01*
X1380774Y-27587390D01*
X1380774Y-28533831D01*
X1389087Y-28575315D01*
X1414357Y-28610889D01*
X1450932Y-28635052D01*
X1492759Y-28643007D01*
X2467166Y-28643007D01*
X2508743Y-28635005D01*
X2544103Y-28610889D01*
X2568318Y-28575419D01*
X2576343Y-28533831D01*
X2576343Y-27587390D01*
X2568315Y-27545822D01*
X2544103Y-27510453D01*
X2508734Y-27486241D01*
X2467166Y-27478213D01*
X1492759Y-27478213D01*
X1450941Y-27486195D01*
X1414357Y-27510453D01*
X1389091Y-27545927D01*
X1380774Y-27587390D01*
X1151186Y-27587390D01*
X1151186Y-26716542D01*
X1380774Y-26716542D01*
X1380774Y-27248625D01*
G37*
G36*
X74981476Y-5660000D02*
G01*
X74890251Y-5648295D01*
X74809285Y-5613838D01*
X74740315Y-5559827D01*
X74687530Y-5490617D01*
X74654013Y-5410108D01*
X74642711Y-5321235D01*
X74642711Y-5240024D01*
X74872299Y-5240024D01*
X74872299Y-5321235D01*
X74880297Y-5362833D01*
X74904417Y-5398293D01*
X74939878Y-5422413D01*
X74981476Y-5430411D01*
X76339466Y-5430411D01*
X76381043Y-5422409D01*
X76416403Y-5398293D01*
X76440618Y-5362823D01*
X76448643Y-5321235D01*
X76448643Y-4845205D01*
X76440615Y-4803638D01*
X76416403Y-4768269D01*
X76381034Y-4744057D01*
X76339466Y-4736029D01*
X74642711Y-4736029D01*
X74642711Y-3641210D01*
X76678353Y-3641210D01*
X76678353Y-3873607D01*
X74981476Y-3873607D01*
X74939887Y-3881632D01*
X74904417Y-3905847D01*
X74880301Y-3941207D01*
X74872299Y-3982784D01*
X74872299Y-4394455D01*
X74880245Y-4436198D01*
X74904417Y-4472857D01*
X74939992Y-4498127D01*
X74981476Y-4506441D01*
X76339466Y-4506441D01*
X76428427Y-4517749D01*
X76508849Y-4551259D01*
X76578120Y-4603984D01*
X76632069Y-4673014D01*
X76666612Y-4753901D01*
X76678353Y-4845205D01*
X76678353Y-5321235D01*
X76666706Y-5410021D01*
X76632069Y-5490617D01*
X76578197Y-5559876D01*
X76508849Y-5613838D01*
X76428347Y-5648374D01*
X76339466Y-5660000D01*
X74981476Y-5660000D01*
G37*
G36*
X66608625Y-4909563D02*
G01*
X66922111Y-4909563D01*
X66922111Y-5139152D01*
X66608625Y-5139152D01*
X66608625Y-5660000D01*
X66378915Y-5660000D01*
X66378915Y-5139152D01*
X64973419Y-5139152D01*
X64973419Y-4909563D01*
X65267366Y-4909563D01*
X66378915Y-4909563D01*
X66378915Y-3952009D01*
X65267366Y-4909563D01*
X64973419Y-4909563D01*
X64973419Y-4881598D01*
X66350949Y-3641210D01*
X66608625Y-3641210D01*
X66608625Y-4909563D01*
G37*
G36*
X37566068Y-5660000D02*
G01*
X37566068Y-3901573D01*
X37255269Y-4274043D01*
X36955705Y-4274043D01*
X37484857Y-3644019D01*
X37798465Y-3644019D01*
X37798465Y-5660000D01*
X37566068Y-5660000D01*
G37*
G36*
X2550052Y-18260337D02*
G01*
X2630931Y-18294787D01*
X2700266Y-18348673D01*
X2754152Y-18418007D01*
X2788781Y-18498516D01*
X2800436Y-18587390D01*
X2800436Y-19872596D01*
X1484455Y-19872596D01*
X1395555Y-19860973D01*
X1314951Y-19826434D01*
X1245677Y-19772486D01*
X1191730Y-19703213D01*
X1157187Y-19622625D01*
X1145568Y-19533831D01*
X1375157Y-19533831D01*
X1383181Y-19575419D01*
X1407397Y-19610889D01*
X1442857Y-19635009D01*
X1484455Y-19643007D01*
X2568039Y-19643007D01*
X2568039Y-19175404D01*
X1375157Y-19175404D01*
X1375157Y-19533831D01*
X1145568Y-19533831D01*
X1145568Y-18945816D01*
X2568039Y-18945816D01*
X2568039Y-18587390D01*
X2560010Y-18545822D01*
X2535799Y-18510453D01*
X2500329Y-18486237D01*
X2458740Y-18478213D01*
X1145568Y-18478213D01*
X1145568Y-18248625D01*
X2458740Y-18248625D01*
X2550052Y-18260337D01*
G37*
G36*
X45997994Y-5660000D02*
G01*
X45997994Y-4903946D01*
X46009383Y-4812659D01*
X46042813Y-4731877D01*
X46095670Y-4662869D01*
X46164568Y-4610000D01*
X46245454Y-4576566D01*
X46336759Y-4565181D01*
X47694749Y-4565181D01*
X47736326Y-4557179D01*
X47771686Y-4533063D01*
X47795901Y-4497593D01*
X47803926Y-4456004D01*
X47803926Y-3982784D01*
X47795898Y-3941216D01*
X47771686Y-3905847D01*
X47736317Y-3881636D01*
X47694749Y-3873607D01*
X46336759Y-3873607D01*
X46295170Y-3881632D01*
X46259700Y-3905847D01*
X46235584Y-3941207D01*
X46227582Y-3982784D01*
X46227582Y-4061186D01*
X45997994Y-4061186D01*
X45997994Y-3982784D01*
X46009383Y-3891497D01*
X46042813Y-3810715D01*
X46095613Y-3741429D01*
X46164568Y-3687494D01*
X46245542Y-3652944D01*
X46336759Y-3641210D01*
X47694749Y-3641210D01*
X47783623Y-3652865D01*
X47864132Y-3687494D01*
X47933466Y-3741380D01*
X47987352Y-3810715D01*
X48021899Y-3891585D01*
X48033636Y-3982784D01*
X48033636Y-4456004D01*
X48021985Y-4544897D01*
X47987352Y-4625509D01*
X47933475Y-4694743D01*
X47864132Y-4748607D01*
X47783630Y-4783143D01*
X47694749Y-4794769D01*
X46336759Y-4794769D01*
X46295170Y-4802794D01*
X46259700Y-4827009D01*
X46235575Y-4862453D01*
X46227582Y-4903946D01*
X46227582Y-5321235D01*
X46235580Y-5362833D01*
X46259700Y-5398293D01*
X46295161Y-5422413D01*
X46336759Y-5430411D01*
X48033636Y-5430411D01*
X48033636Y-5660000D01*
X45997994Y-5660000D01*
G37*
G36*
X53380774Y-71536029D02*
G01*
X54467166Y-71536029D01*
X54556047Y-71547655D01*
X54636549Y-71582191D01*
X54705883Y-71636077D01*
X54759769Y-71705411D01*
X54794399Y-71785920D01*
X54806053Y-71874794D01*
X54806053Y-72821235D01*
X54794406Y-72910021D01*
X54759769Y-72990617D01*
X54705897Y-73059876D01*
X54636549Y-73113838D01*
X54556047Y-73148374D01*
X54467166Y-73160000D01*
X53151186Y-73160000D01*
X53151186Y-71874794D01*
X53380774Y-71874794D01*
X53380774Y-72821235D01*
X53389087Y-72862719D01*
X53414357Y-72898293D01*
X53450932Y-72922456D01*
X53492759Y-72930411D01*
X54467166Y-72930411D01*
X54508743Y-72922409D01*
X54544103Y-72898293D01*
X54568318Y-72862823D01*
X54576343Y-72821235D01*
X54576343Y-71874794D01*
X54568315Y-71833226D01*
X54544103Y-71797857D01*
X54508734Y-71773645D01*
X54467166Y-71765617D01*
X53492759Y-71765617D01*
X53450941Y-71773599D01*
X53414357Y-71797857D01*
X53389091Y-71833331D01*
X53380774Y-71874794D01*
X53151186Y-71874794D01*
X53151186Y-71003946D01*
X53380774Y-71003946D01*
X53380774Y-71536029D01*
G37*
G36*
X56416067Y-71547741D02*
G01*
X56496946Y-71582191D01*
X56566281Y-71636077D01*
X56620167Y-71705411D01*
X56654796Y-71785920D01*
X56666451Y-71874794D01*
X56666451Y-73160000D01*
X55350471Y-73160000D01*
X55261571Y-73148377D01*
X55180966Y-73113838D01*
X55111693Y-73059890D01*
X55057745Y-72990617D01*
X55023202Y-72910029D01*
X55011584Y-72821235D01*
X55241172Y-72821235D01*
X55249196Y-72862823D01*
X55273412Y-72898293D01*
X55308872Y-72922413D01*
X55350471Y-72930411D01*
X56434054Y-72930411D01*
X56434054Y-72462808D01*
X55241172Y-72462808D01*
X55241172Y-72821235D01*
X55011584Y-72821235D01*
X55011584Y-72233220D01*
X56434054Y-72233220D01*
X56434054Y-71874794D01*
X56426026Y-71833226D01*
X56401814Y-71797857D01*
X56366344Y-71773641D01*
X56324755Y-71765617D01*
X55011584Y-71765617D01*
X55011584Y-71536029D01*
X56324755Y-71536029D01*
X56416067Y-71547741D01*
G37*
G36*
X57262526Y-73160000D02*
G01*
X57173626Y-73148377D01*
X57093021Y-73113838D01*
X57023748Y-73059890D01*
X56969801Y-72990617D01*
X56935257Y-72910029D01*
X56923639Y-72821235D01*
X56923639Y-71874794D01*
X56935265Y-71785912D01*
X56969801Y-71705411D01*
X57023762Y-71636063D01*
X57093021Y-71582191D01*
X57173626Y-71547651D01*
X57262526Y-71536029D01*
X58572889Y-71536029D01*
X58572889Y-71765617D01*
X57262526Y-71765617D01*
X57220937Y-71773641D01*
X57185467Y-71797857D01*
X57161255Y-71833226D01*
X57153227Y-71874794D01*
X57153227Y-72821235D01*
X57161251Y-72862823D01*
X57185467Y-72898293D01*
X57220928Y-72922413D01*
X57262526Y-72930411D01*
X58578506Y-72930411D01*
X58578506Y-73160000D01*
X57262526Y-73160000D01*
G37*
G36*
X58821528Y-73160000D02*
G01*
X58821528Y-71003946D01*
X59051116Y-71003946D01*
X59051116Y-72233220D01*
X59499180Y-72233220D01*
X60137508Y-71536029D01*
X60439881Y-71536029D01*
X60439881Y-71538838D01*
X59703489Y-72348014D01*
X60437194Y-73157191D01*
X60437194Y-73160000D01*
X60137508Y-73160000D01*
X59499180Y-72462808D01*
X59051116Y-72462808D01*
X59051116Y-73160000D01*
X58821528Y-73160000D01*
G37*
G36*
X1487142Y-63300000D02*
G01*
X1398269Y-63288698D01*
X1317759Y-63255181D01*
X1248852Y-63202333D01*
X1196004Y-63133426D01*
X1162487Y-63052917D01*
X1151186Y-62964043D01*
X1151186Y-61284019D01*
X1377965Y-61284019D01*
X1377965Y-62964043D01*
X1385984Y-63005527D01*
X1410205Y-63040980D01*
X1445658Y-63065201D01*
X1487142Y-63073220D01*
X2831210Y-63073220D01*
X2872778Y-63065192D01*
X2908147Y-63040980D01*
X2932368Y-63005527D01*
X2940387Y-62964043D01*
X2940387Y-61284019D01*
X3167166Y-61284019D01*
X3167166Y-62964043D01*
X3155865Y-63052917D01*
X3122348Y-63133426D01*
X3069575Y-63202319D01*
X3000593Y-63255181D01*
X2920171Y-63288691D01*
X2831210Y-63300000D01*
X1487142Y-63300000D01*
G37*
G36*
X3796214Y-63300000D02*
G01*
X3707235Y-63288694D01*
X3626709Y-63255181D01*
X3557802Y-63202333D01*
X3504954Y-63133426D01*
X3471437Y-63052917D01*
X3460136Y-62964043D01*
X3460136Y-62885642D01*
X3686915Y-62885642D01*
X3686915Y-62964043D01*
X3694934Y-63005527D01*
X3719155Y-63040980D01*
X3754625Y-63065196D01*
X3796214Y-63073220D01*
X5140160Y-63073220D01*
X5181728Y-63065192D01*
X5217096Y-63040980D01*
X5241318Y-63005527D01*
X5249337Y-62964043D01*
X5249337Y-62513171D01*
X5241265Y-62471836D01*
X5217096Y-62437578D01*
X5181841Y-62414512D01*
X5140160Y-62406803D01*
X3796214Y-62406803D01*
X3707314Y-62395181D01*
X3626709Y-62360642D01*
X3557642Y-62306870D01*
X3504954Y-62238764D01*
X3471477Y-62159500D01*
X3460136Y-62070847D01*
X3460136Y-61619975D01*
X3471441Y-61531120D01*
X3504954Y-61450715D01*
X3557811Y-61381707D01*
X3626709Y-61328838D01*
X3707235Y-61295324D01*
X3796214Y-61284019D01*
X5140160Y-61284019D01*
X5229121Y-61295328D01*
X5309542Y-61328838D01*
X5378516Y-61381721D01*
X5431297Y-61450715D01*
X5464811Y-61531120D01*
X5476116Y-61619975D01*
X5476116Y-61698377D01*
X5249337Y-61698377D01*
X5249337Y-61619975D01*
X5241308Y-61578407D01*
X5217096Y-61543039D01*
X5181728Y-61518827D01*
X5140160Y-61510799D01*
X3796214Y-61510799D01*
X3754625Y-61518823D01*
X3719155Y-61543039D01*
X3694943Y-61578407D01*
X3686915Y-61619975D01*
X3686915Y-62070847D01*
X3694977Y-62112098D01*
X3719155Y-62146441D01*
X3754512Y-62169511D01*
X3796214Y-62177215D01*
X5140160Y-62177215D01*
X5229041Y-62188841D01*
X5309542Y-62223377D01*
X5378670Y-62277087D01*
X5431297Y-62345254D01*
X5464774Y-62424519D01*
X5476116Y-62513171D01*
X5476116Y-62964043D01*
X5464814Y-63052917D01*
X5431297Y-63133426D01*
X5378525Y-63202319D01*
X5309542Y-63255181D01*
X5229121Y-63288691D01*
X5140160Y-63300000D01*
X3796214Y-63300000D01*
G37*
G36*
X7464448Y-61295324D02*
G01*
X7544853Y-61328838D01*
X7613852Y-61381716D01*
X7666730Y-61450715D01*
X7700244Y-61531120D01*
X7711549Y-61619975D01*
X7711549Y-62048377D01*
X7701779Y-62125436D01*
X7675157Y-62196755D01*
X7767480Y-62356489D01*
X7790756Y-62424819D01*
X7798377Y-62493632D01*
X7798377Y-62964043D01*
X7787075Y-63052917D01*
X7753558Y-63133426D01*
X7700689Y-63202324D01*
X7631681Y-63255181D01*
X7551276Y-63288695D01*
X7462421Y-63300000D01*
X5782397Y-63300000D01*
X5782397Y-62493632D01*
X6009176Y-62493632D01*
X6009176Y-62964043D01*
X6017168Y-63005537D01*
X6041294Y-63040980D01*
X6076764Y-63065196D01*
X6118353Y-63073220D01*
X7462421Y-63073220D01*
X7503905Y-63065201D01*
X7539357Y-63040980D01*
X7563579Y-63005527D01*
X7571598Y-62964043D01*
X7571598Y-62493632D01*
X7563569Y-62452064D01*
X7539357Y-62416695D01*
X7503905Y-62392474D01*
X7462421Y-62384455D01*
X6118353Y-62384455D01*
X6076764Y-62392480D01*
X6041294Y-62416695D01*
X6017178Y-62452055D01*
X6009176Y-62493632D01*
X5782397Y-62493632D01*
X5782397Y-61619975D01*
X6009176Y-61619975D01*
X6009176Y-62048377D01*
X6017174Y-62089975D01*
X6041294Y-62125436D01*
X6076755Y-62149556D01*
X6118353Y-62157554D01*
X7375593Y-62157554D01*
X7416937Y-62149508D01*
X7451186Y-62125436D01*
X7474256Y-62090078D01*
X7481960Y-62048377D01*
X7481960Y-61619975D01*
X7474252Y-61578294D01*
X7451186Y-61543039D01*
X7416927Y-61518870D01*
X7375593Y-61510799D01*
X6118353Y-61510799D01*
X6076764Y-61518823D01*
X6041294Y-61543039D01*
X6017178Y-61578398D01*
X6009176Y-61619975D01*
X5782397Y-61619975D01*
X5782397Y-61284019D01*
X7375593Y-61284019D01*
X7464448Y-61295324D01*
G37*
G36*
X1159612Y-66660000D02*
G01*
X1159612Y-64644019D01*
X1386392Y-64644019D01*
X1386392Y-65537215D01*
X2996441Y-65537215D01*
X2996441Y-64644019D01*
X3226029Y-64644019D01*
X3226029Y-66660000D01*
X2996441Y-66660000D01*
X2996441Y-65766803D01*
X1386392Y-65766803D01*
X1386392Y-66660000D01*
X1159612Y-66660000D01*
G37*
G36*
X5302027Y-64655328D02*
G01*
X5382449Y-64688838D01*
X5451422Y-64741721D01*
X5504204Y-64810715D01*
X5537718Y-64891120D01*
X5549023Y-64979975D01*
X5549023Y-66324043D01*
X5537721Y-66412917D01*
X5504204Y-66493426D01*
X5451431Y-66562319D01*
X5382449Y-66615181D01*
X5302027Y-66648691D01*
X5213066Y-66660000D01*
X3868998Y-66660000D01*
X3780125Y-66648698D01*
X3699616Y-66615181D01*
X3630709Y-66562333D01*
X3577861Y-66493426D01*
X3544344Y-66412917D01*
X3533042Y-66324043D01*
X3533042Y-64979975D01*
X3759822Y-64979975D01*
X3759822Y-66324043D01*
X3767840Y-66365527D01*
X3792062Y-66400980D01*
X3827514Y-66425201D01*
X3868998Y-66433220D01*
X5213066Y-66433220D01*
X5254634Y-66425192D01*
X5290003Y-66400980D01*
X5314224Y-66365527D01*
X5322243Y-66324043D01*
X5322243Y-64979975D01*
X5314215Y-64938407D01*
X5290003Y-64903039D01*
X5254634Y-64878827D01*
X5213066Y-64870799D01*
X3868998Y-64870799D01*
X3827514Y-64878817D01*
X3792062Y-64903039D01*
X3767850Y-64938407D01*
X3759822Y-64979975D01*
X3533042Y-64979975D01*
X3544347Y-64891120D01*
X3577861Y-64810715D01*
X3630718Y-64741707D01*
X3699616Y-64688838D01*
X3780125Y-64655321D01*
X3868998Y-64644019D01*
X5213066Y-64644019D01*
X5302027Y-64655328D01*
G37*
G36*
X6178070Y-66660000D02*
G01*
X6089091Y-66648694D01*
X6008565Y-66615181D01*
X5939658Y-66562333D01*
X5886810Y-66493426D01*
X5853293Y-66412917D01*
X5841992Y-66324043D01*
X5841992Y-66245642D01*
X6068771Y-66245642D01*
X6068771Y-66324043D01*
X6076790Y-66365527D01*
X6101011Y-66400980D01*
X6136481Y-66425196D01*
X6178070Y-66433220D01*
X7522016Y-66433220D01*
X7563584Y-66425192D01*
X7598953Y-66400980D01*
X7623174Y-66365527D01*
X7631193Y-66324043D01*
X7631193Y-65873171D01*
X7623121Y-65831836D01*
X7598953Y-65797578D01*
X7563697Y-65774512D01*
X7522016Y-65766803D01*
X6178070Y-65766803D01*
X6089170Y-65755181D01*
X6008565Y-65720642D01*
X5939498Y-65666870D01*
X5886810Y-65598764D01*
X5853333Y-65519500D01*
X5841992Y-65430847D01*
X5841992Y-64979975D01*
X5853297Y-64891120D01*
X5886810Y-64810715D01*
X5939667Y-64741707D01*
X6008565Y-64688838D01*
X6089091Y-64655324D01*
X6178070Y-64644019D01*
X7522016Y-64644019D01*
X7610977Y-64655328D01*
X7691399Y-64688838D01*
X7760372Y-64741721D01*
X7813154Y-64810715D01*
X7846667Y-64891120D01*
X7857972Y-64979975D01*
X7857972Y-65058377D01*
X7631193Y-65058377D01*
X7631193Y-64979975D01*
X7623165Y-64938407D01*
X7598953Y-64903039D01*
X7563584Y-64878827D01*
X7522016Y-64870799D01*
X6178070Y-64870799D01*
X6136481Y-64878823D01*
X6101011Y-64903039D01*
X6076800Y-64938407D01*
X6068771Y-64979975D01*
X6068771Y-65430847D01*
X6076833Y-65472098D01*
X6101011Y-65506441D01*
X6136369Y-65529511D01*
X6178070Y-65537215D01*
X7522016Y-65537215D01*
X7610897Y-65548841D01*
X7691399Y-65583377D01*
X7760527Y-65637087D01*
X7813154Y-65705254D01*
X7846631Y-65784519D01*
X7857972Y-65873171D01*
X7857972Y-66324043D01*
X7846671Y-66412917D01*
X7813154Y-66493426D01*
X7760381Y-66562319D01*
X7691399Y-66615181D01*
X7610977Y-66648691D01*
X7522016Y-66660000D01*
X6178070Y-66660000D01*
G37*
G36*
X8951081Y-66660000D02*
G01*
X8951081Y-64870799D01*
X8055076Y-64870799D01*
X8055076Y-64644019D01*
X10071057Y-64644019D01*
X10071057Y-64870799D01*
X9177861Y-64870799D01*
X9177861Y-66660000D01*
X8951081Y-66660000D01*
G37*
G36*
X86194504Y-3873607D02*
G01*
X84850436Y-3873607D01*
X84808847Y-3881632D01*
X84773377Y-3905847D01*
X84749261Y-3941207D01*
X84741259Y-3982784D01*
X84741259Y-4386029D01*
X84749215Y-4427856D01*
X84773377Y-4464431D01*
X84808952Y-4489701D01*
X84850436Y-4498014D01*
X86208426Y-4498014D01*
X86297387Y-4509323D01*
X86377809Y-4542833D01*
X86447085Y-4595654D01*
X86501029Y-4664710D01*
X86535576Y-4745580D01*
X86547313Y-4836779D01*
X86547313Y-5321235D01*
X86535666Y-5410021D01*
X86501029Y-5490617D01*
X86447157Y-5559876D01*
X86377809Y-5613838D01*
X86297307Y-5648374D01*
X86208426Y-5660000D01*
X84850436Y-5660000D01*
X84759211Y-5648295D01*
X84678245Y-5613838D01*
X84609275Y-5559827D01*
X84556490Y-5490617D01*
X84522973Y-5410108D01*
X84511671Y-5321235D01*
X84741259Y-5321235D01*
X84749257Y-5362833D01*
X84773377Y-5398293D01*
X84808838Y-5422413D01*
X84850436Y-5430411D01*
X86208426Y-5430411D01*
X86250003Y-5422409D01*
X86285363Y-5398293D01*
X86309578Y-5362823D01*
X86317603Y-5321235D01*
X86317603Y-4836779D01*
X86309575Y-4795211D01*
X86285363Y-4759842D01*
X86249994Y-4735631D01*
X86208426Y-4727602D01*
X84741259Y-4727602D01*
X84741259Y-5321235D01*
X84511671Y-5321235D01*
X84511671Y-3982784D01*
X84523060Y-3891497D01*
X84556490Y-3810715D01*
X84609290Y-3741429D01*
X84678245Y-3687494D01*
X84759219Y-3652944D01*
X84850436Y-3641210D01*
X86194504Y-3641210D01*
X86194504Y-3873607D01*
G37*
G36*
X55834194Y-5660000D02*
G01*
X55742969Y-5648295D01*
X55662002Y-5613838D01*
X55592729Y-5559890D01*
X55538782Y-5490617D01*
X55504239Y-5410029D01*
X55492620Y-5321235D01*
X55492620Y-5276416D01*
X55725017Y-5276416D01*
X55725017Y-5321235D01*
X55733041Y-5362823D01*
X55757257Y-5398293D01*
X55792701Y-5422419D01*
X55834194Y-5430411D01*
X57192184Y-5430411D01*
X57233782Y-5422413D01*
X57269243Y-5398293D01*
X57293458Y-5362823D01*
X57301483Y-5321235D01*
X57301483Y-4853632D01*
X57293454Y-4812064D01*
X57269243Y-4776695D01*
X57233773Y-4752480D01*
X57192184Y-4744455D01*
X55879012Y-4744455D01*
X55879012Y-4514745D01*
X57102669Y-4514745D01*
X57144246Y-4506743D01*
X57179605Y-4482627D01*
X57203821Y-4447157D01*
X57211845Y-4405568D01*
X57211845Y-3982784D01*
X57203817Y-3941216D01*
X57179605Y-3905847D01*
X57144236Y-3881636D01*
X57102669Y-3873607D01*
X55834194Y-3873607D01*
X55792710Y-3881626D01*
X55757257Y-3905847D01*
X55733045Y-3941216D01*
X55725017Y-3982784D01*
X55725017Y-4055568D01*
X55492620Y-4055568D01*
X55492620Y-3982784D01*
X55504328Y-3891577D01*
X55538782Y-3810715D01*
X55592743Y-3741366D01*
X55662002Y-3687494D01*
X55742976Y-3652944D01*
X55834194Y-3641210D01*
X57102669Y-3641210D01*
X57193868Y-3652947D01*
X57274738Y-3687494D01*
X57343794Y-3741438D01*
X57396615Y-3810715D01*
X57430045Y-3891497D01*
X57441434Y-3982784D01*
X57441434Y-4405568D01*
X57431664Y-4482627D01*
X57407850Y-4551259D01*
X57467744Y-4623103D01*
X57504448Y-4699637D01*
X57524681Y-4780291D01*
X57531071Y-4853632D01*
X57531071Y-5321235D01*
X57519423Y-5410021D01*
X57484787Y-5490617D01*
X57430915Y-5559876D01*
X57361566Y-5613838D01*
X57281065Y-5648374D01*
X57192184Y-5660000D01*
X55834194Y-5660000D01*
G37*
M02*
